<?xml version="1.0" encoding="UTF-8" standalone="no"?>
<svg
   width="4776"
   height="2791"
   xml:space="preserve"
   overflow="hidden"
   version="1.1"
   id="svg36"
   sodipodi:docname="i_plot.svg"
   inkscape:version="1.4 (e7c3feb1, 2024-10-09)"
   xmlns:inkscape="http://www.inkscape.org/namespaces/inkscape"
   xmlns:sodipodi="http://sodipodi.sourceforge.net/DTD/sodipodi-0.dtd"
   xmlns="http://www.w3.org/2000/svg"
   xmlns:svg="http://www.w3.org/2000/svg"><sodipodi:namedview
     id="namedview36"
     pagecolor="#ffffff"
     bordercolor="#000000"
     borderopacity="0.25"
     inkscape:showpageshadow="2"
     inkscape:pageopacity="0.0"
     inkscape:pagecheckerboard="0"
     inkscape:deskcolor="#d1d1d1"
     inkscape:zoom="0.1962528"
     inkscape:cx="2012.7102"
     inkscape:cy="1661.1228"
     inkscape:window-width="1800"
     inkscape:window-height="1019"
     inkscape:window-x="0"
     inkscape:window-y="44"
     inkscape:window-maximized="0"
     inkscape:current-layer="g35" /><defs
     id="defs2"><clipPath
       id="clip0"><rect
         x="3446"
         y="609"
         width="4776"
         height="2791"
         id="rect1" /></clipPath><clipPath
       id="clip1"><rect
         x="3446"
         y="609"
         width="4776"
         height="2791"
         id="rect2" /></clipPath></defs><g
     clip-path="url(#clip0)"
     transform="translate(-3446 -609)"
     id="g36"><g
       clip-path="url(#clip1)"
       id="g35"><rect
         x="3448"
         y="614"
         width="4768"
         height="2781"
         fill="#FFFFFF"
         fill-opacity="1"
         id="rect3" /><g
         id="g3"><path
           d="M3656.5 3229.5 8144.5 3229.5M3656.5 2908.6 8144.5 2908.6M3656.5 2587.58 8144.5 2587.58M3656.5 1946.56 8144.5 1946.56M3656.5 1625.55 8144.5 1625.55M3656.5 1305.54 8144.5 1305.54M3656.5 984.532 8144.5 984.532M3656.5 663.5 8144.5 663.5"
           stroke="#D9D9D9"
           stroke-width="3.4375"
           stroke-linecap="butt"
           stroke-linejoin="round"
           stroke-miterlimit="10"
           stroke-opacity="1"
           fill="none"
           fill-rule="nonzero"
           id="path3" /></g><g
         id="g4"><path
           d="M4105.63 663.5 4105.63 3229.5M4554.65 663.5 4554.65 3229.5M5002.66 663.5 5002.66 3229.5M5451.68 663.5 5451.68 3229.5M5900.69 663.5 5900.69 3229.5M6348.71 663.5 6348.71 3229.5M6797.72 663.5 6797.72 3229.5M7246.74 663.5 7246.74 3229.5M7695.75 663.5 7695.75 3229.5M8144.5 663.5 8144.5 3229.5"
           stroke="#D9D9D9"
           stroke-width="3.4375"
           stroke-linecap="butt"
           stroke-linejoin="round"
           stroke-miterlimit="10"
           stroke-opacity="1"
           fill="none"
           fill-rule="nonzero"
           id="path4" /></g><g
         id="g5"><path
           d="M0 0 0.000360892 2566"
           stroke="#BFBFBF"
           stroke-width="3.4375"
           stroke-linecap="butt"
           stroke-linejoin="round"
           stroke-miterlimit="10"
           stroke-opacity="1"
           fill="none"
           fill-rule="evenodd"
           transform="matrix(1 0 0 -1 3656.5 3229.5)"
           id="path5" /></g><g
         id="g6"><path
           d="M3656.5 2267.5 8144.5 2267.5"
           stroke="#BFBFBF"
           stroke-width="3.4375"
           stroke-linecap="butt"
           stroke-linejoin="round"
           stroke-miterlimit="10"
           stroke-opacity="1"
           fill="none"
           fill-rule="evenodd"
           id="path6" /></g><g
         id="g7"><path
           d="M3679.5 2267.57 3701.62 2267.57 3723.62 2267.57 3746.62 2267.57 3768.62 2267.57 3791.62 2267.57 3813.63 2267.57 3836.63 2267.57 3858.63 2267.57 3880.63 2267.57 3903.63 2267.57 3925.63 2267.57 3948.63 2267.57 3970.63 2267.57 3993.63 2267.57 4015.63 2267.57 4038.63 2267.57 4060.63 2267.57 4082.63 2267.57 4105.63 2267.57 4127.64 2267.57 4150.64 2267.57 4172.64 2267.57 4195.64 2267.57 4217.64 2267.57 4239.64 2267.57 4262.64 2267.57 4284.64 2267.57 4307.64 2267.57 4329.64 2267.57 4352.64 2267.57 4374.64 2267.57 4396.64 2267.57 4419.65 2267.57 4441.65 2267.57 4464.65 2267.57 4486.65 2267.57 4509.65 2267.57 4531.65 2267.57 4554.65 2267.57 4576.65 2267.57 4598.65 2267.57 4621.65 2267.57 4643.65 2267.57 4666.65 2267.57 4688.65 2267.57 4711.65 2267.57 4733.66 2267.57 4755.66 2267.57 4778.66 2267.57 4800.66 2267.57 4823.66 2267.57 4845.66 2267.57 4868.66 2267.57 4890.66 2267.57 4913.66 2267.57 4935.66 2267.57 4957.66 2267.57 4980.66 2267.57 5002.66 2267.57 5025.67 2267.57 5047.67 2267.57 5070.67 2267.57 5092.67 2267.57 5114.67 2267.57 5137.67 2267.57 5159.67 2267.57 5182.67 2267.57 5204.67 2267.57 5227.67 2267.57 5249.67 2267.57 5271.67 2267.57 5294.67 2267.57 5316.67 2267.57 5339.68 2267.57 5361.68 2267.57 5384.68 2267.57 5406.68 2267.57 5429.68 2267.57 5451.68 2267.57 5473.68 2267.57 5496.68 2267.57 5518.68 2267.57 5541.68 2267.57 5563.68 2267.57 5586.68 2267.57 5608.68 2267.57 5630.69 2267.57 5653.69 2267.57 5675.69 2267.57 5698.69 2267.57 5720.69 2267.57 5743.69 2267.57 5765.69 2267.57 5788.69 2267.57 5810.69 2267.57 5832.69 2267.57 5855.69 2267.57 5877.69 2267.57 5900.69 2267.57 5922.69 2267.57 5945.7 2267.57 5967.7 2267.57 5989.7 2267.57 6012.7 2267.57 6034.7 2267.57 6057.7 2267.57 6079.7 2267.57 6102.7 2337.58 6124.7 2387.58 6146.7 2402.58 6169.7 2477.58 6191.7 2537.58 6214.7 2537.58 6236.7 2557.58 6259.71 2607.59 6281.71 2627.59 6304.71 2642.59 6326.71 2677.59 6348.71 2712.59 6371.71 2768.59 6393.71 2768.59 6416.71 2778.59 6438.71 2778.59 6461.71 2783.59 6483.71 2783.59 6505.71 2798.59 6528.71 2803.59 6550.71 2818.59 6573.72 2823.59 6595.72 2813.59 6618.72 2813.59 6640.72 2828.59 6663.72 2833.59 6685.72 2838.59 6707.72 2833.59 6730.72 2833.59 6752.72 2843.5 6775.72 2838.59 6797.72 2823.59 6820.72 2808.59 6842.72 2788.59 6864.73 2783.59 6887.73 2768.59 6909.73 2682.59 6932.73 2622.59 6954.73 2542.58 6977.73 2477.58 6999.73 2377.58 7021.73 2277.57 7044.73 2267.57 7066.73 2191.57 7089.73 2121.57 7111.73 2076.57 7134.73 2011.57 7156.73 1936.56 7179.74 1891.56 7201.74 1851.56 7223.74 1821.56 7246.74 1786.56 7268.74 1760.56 7291.74 1730.56 7313.74 1715.56 7336.74 1700.56 7358.74 1680.56 7380.74 1655.55 7403.74 1645.55 7425.74 1630.5 7448.74 1630.5 7470.75 1630.5 7493.75 1630.5 7515.75 1660.55 7537.75 1690.56 7560.75 1715.56 7582.75 1771.56 7605.75 1861.56 7627.75 1936.56 7650.75 2016.57 7672.75 2101.57 7695.75 2196.57 7717.75 2267.57 7739.75 2267.57 7762.75 2267.57 7784.76 2267.57 7807.76 2267.57 7829.76 2267.57 7852.76 2267.57 7874.76 2267.57 7896.76 2267.57 7919.76 2267.57 7942.5 2267.57"
           stroke="#C04F15"
           stroke-width="9.16667"
           stroke-linecap="round"
           stroke-linejoin="round"
           stroke-miterlimit="10"
           stroke-opacity="1"
           fill="none"
           fill-rule="nonzero"
           id="path7" /></g><g
         id="g8"><path
           d="M3679.5 2256.57 3701.62 2259.57 3723.62 2258.57 3746.62 2260.57 3768.62 2266.57 3791.62 2267.57 3813.63 2262.57 3836.63 2252.5 3858.63 2259.57 3880.63 2269.57 3903.63 2268.57 3925.63 2266.57 3948.63 2262.57 3970.63 2269.57 3993.63 2281.5 4015.63 2263.57 4038.63 2268.57 4060.63 2267.57 4082.63 2267.57 4105.63 2264.57 4127.64 2270.57 4150.64 2262.57 4172.64 2271.57 4195.64 2277.57 4217.64 2264.57 4239.64 2271.57 4262.64 2260.57 4284.64 2269.57 4307.64 2275.57 4329.64 2263.57 4352.64 2264.57 4374.64 2267.57 4396.64 2270.57 4419.65 2269.57 4441.65 2265.57 4464.65 2269.57 4486.65 2268.57 4509.65 2266.57 4531.65 2268.57 4554.65 2267.57 4576.65 2274.57 4598.65 2267.57 4621.65 2264.57 4643.65 2271.57 4666.65 2263.57 4688.65 2262.57 4711.65 2268.57 4733.66 2265.57 4755.66 2267.57 4778.66 2265.57 4800.66 2266.57 4823.66 2268.57 4845.66 2268.57 4868.66 2270.57 4890.66 2261.57 4913.66 2265.57 4935.66 2263.57 4957.66 2266.57 4980.66 2264.57 5002.66 2261.57 5025.67 2264.57 5047.67 2267.57 5070.67 2264.57 5092.67 2267.57 5114.67 2263.57 5137.67 2262.57 5159.67 2264.57 5182.67 2260.57 5204.67 2266.57 5227.67 2264.57 5249.67 2264.57 5271.67 2266.57 5294.67 2265.57 5316.67 2264.57 5339.68 2264.57 5361.68 2262.57 5384.68 2262.57 5406.68 2266.57 5429.68 2263.57 5451.68 2263.57 5473.68 2260.57 5496.68 2269.57 5518.68 2268.57 5541.68 2266.57 5563.68 2264.57 5586.68 2262.57 5608.68 2265.57 5630.69 2263.57 5653.69 2266.57 5675.69 2267.57 5698.69 2262.57 5720.69 2265.57 5743.69 2263.57 5765.69 2265.57 5788.69 2264.57 5810.69 2262.57 5832.69 2265.57 5855.69 2262.57 5877.69 2263.57 5900.69 2265.57 5922.69 2264.57 5945.7 2265.57 5967.7 2266.57 5989.7 2261.57 6012.7 2262.57 6034.7 2258.57 6057.7 2267.57 6079.7 2264.57 6102.7 2267.57 6124.7 2267.57 6146.7 2264.57 6169.7 2263.57 6191.7 2264.57 6214.7 2264.57 6236.7 2262.57 6259.71 2263.57 6281.71 2264.57 6304.71 2264.57 6326.71 2264.57 6348.71 2265.57 6371.71 2264.57 6393.71 2264.57 6416.71 2267.57 6438.71 2268.57 6461.71 2267.57 6483.71 2261.57 6505.71 2264.57 6528.71 2267.57 6550.71 2266.57 6573.72 2268.57 6595.72 2265.57 6618.72 2266.57 6640.72 2264.57 6663.72 2263.57 6685.72 2262.57 6707.72 2264.57 6730.72 2263.57 6752.72 2267.57 6775.72 2268.57 6797.72 2268.57 6820.72 2263.57 6842.72 2267.57 6864.73 2267.57 6887.73 2268.57 6909.73 2264.57 6932.73 2264.57 6954.73 2266.57 6977.73 2266.57 6999.73 2265.57 7021.73 2262.57 7044.73 2265.57 7066.73 2265.57 7089.73 2263.57 7111.73 2267.57 7134.73 2263.57 7156.73 2263.57 7179.74 2262.57 7201.74 2264.57 7223.74 2265.57 7246.74 2265.57 7268.74 2260.57 7291.74 2265.57 7313.74 2265.57 7336.74 2264.57 7358.74 2264.57 7380.74 2265.57 7403.74 2263.57 7425.74 2266.57 7448.74 2265.57 7470.75 2264.57 7493.75 2265.57 7515.75 2264.57 7537.75 2264.57 7560.75 2263.57 7582.75 2267.57 7605.75 2264.57 7627.75 2264.57 7650.75 2269.57 7672.75 2268.57 7695.75 2266.57 7717.75 2261.57 7739.75 2257.57 7762.75 2262.57 7784.76 2260.57 7807.76 2261.57 7829.76 2264.57 7852.76 2259.57 7874.76 2265.57 7896.76 2258.57 7919.76 2269.57 7942.5 2260.57"
           stroke="#104862"
           stroke-width="9.16667"
           stroke-linecap="round"
           stroke-linejoin="round"
           stroke-miterlimit="10"
           stroke-opacity="1"
           fill="none"
           fill-rule="nonzero"
           id="path8" /></g><g
         id="g9"><path
           d="M3679.5 1625.55 3701.62 1625.55 3723.62 1625.55 3746.62 1625.55 3768.62 1625.55 3791.62 1625.55 3813.63 1625.55 3836.63 1625.55 3858.63 1625.55 3880.63 1625.55 3903.63 1625.55 3925.63 1625.55 3948.63 1625.55 3970.63 1625.55 3993.63 1625.55 4015.63 1625.55 4038.63 1625.55 4060.63 1625.55 4082.63 1625.55 4105.63 1625.55 4127.64 1625.55 4150.64 1625.55 4172.64 1625.55 4195.64 1625.55 4217.64 1625.55 4239.64 1625.55 4262.64 1625.55 4284.64 1625.55 4307.64 1625.55 4329.64 1625.55 4352.64 1625.55 4374.64 1625.55 4396.64 1625.55 4419.65 1625.55 4441.65 1625.55 4464.65 1625.55 4486.65 1625.55 4509.65 1625.55 4531.65 1625.55 4554.65 1625.55 4576.65 1625.55 4598.65 1625.55 4621.65 1625.55 4643.65 1625.55 4666.65 1625.55 4688.65 1625.55 4711.65 1625.55 4733.66 1625.55 4755.66 1625.55 4778.66 1625.55 4800.66 1625.55 4823.66 1625.55 4845.66 1625.55 4868.66 1625.55 4890.66 1625.55 4913.66 1625.55 4935.66 1570.55 4957.66 1560.55 4980.66 1530.55 5002.66 1500.55 5025.67 1490.55 5047.67 1475.55 5070.67 1440.55 5092.67 1425.55 5114.67 1380.55 5137.67 1325.54 5159.67 1305.54 5182.67 1280.54 5204.67 1249.54 5227.67 1229.54 5249.67 1214.54 5271.67 1204.54 5294.67 1184.54 5316.67 1169.54 5339.68 1159.54 5361.68 1144.5 5384.68 1144.5 5406.68 1169.54 5429.68 1285.54 5451.68 1510.55 5473.68 1625.55 5496.68 1715.56 5518.68 1791.56 5541.68 1841.56 5563.68 1951.56 5586.68 1981.57 5608.68 1986.57 5630.69 2001.57 5653.69 2036.57 5675.69 2076.57 5698.69 2106.57 5720.69 2121.57 5743.69 2146.57 5765.69 2196.57 5788.69 2226.57 5810.69 2242.5 5832.69 2236.57 5855.69 2171.57 5877.69 2041.57 5900.69 1941.56 5922.69 1821.56 5945.7 1680.56 5967.7 1625.55 5989.7 1625.55 6012.7 1625.55 6034.7 1625.55 6057.7 1625.55 6079.7 1625.55 6102.7 1625.55 6124.7 1625.55 6146.7 1625.55 6169.7 1625.55 6191.7 1625.55 6214.7 1625.55 6236.7 1625.55 6259.71 1625.55 6281.71 1625.55 6304.71 1625.55 6326.71 1625.55 6348.71 1625.55 6371.71 1625.55 6393.71 1625.55 6416.71 1625.55 6438.71 1625.55 6461.71 1625.55 6483.71 1625.55 6505.71 1625.55 6528.71 1625.55 6550.71 1625.55 6573.72 1625.55 6595.72 1625.55 6618.72 1625.55 6640.72 1625.55 6663.72 1625.55 6685.72 1625.55 6707.72 1625.55 6730.72 1625.55 6752.72 1625.55 6775.72 1625.55 6797.72 1625.55 6820.72 1625.55 6842.72 1625.55 6864.73 1625.55 6887.73 1625.55 6909.73 1625.55 6932.73 1625.55 6954.73 1625.55 6977.73 1625.55 6999.73 1625.55 7021.73 1625.55 7044.73 1625.55 7066.73 1625.55 7089.73 1625.55 7111.73 1625.55 7134.73 1625.55 7156.73 1625.55 7179.74 1625.55 7201.74 1625.55 7223.74 1625.55 7246.74 1625.55 7268.74 1625.55 7291.74 1625.55 7313.74 1625.55 7336.74 1625.55 7358.74 1625.55 7380.74 1625.55 7403.74 1625.55 7425.74 1625.55 7448.74 1625.55 7470.75 1625.55 7493.75 1625.55 7515.75 1625.55 7537.75 1625.55 7560.75 1625.55 7582.75 1625.55 7605.75 1625.55 7627.75 1625.55 7650.75 1625.55 7672.75 1625.55 7695.75 1625.55 7717.75 1625.55 7739.75 1625.55 7762.75 1625.55 7784.76 1625.55 7807.76 1625.55 7829.76 1625.55 7852.76 1625.55 7874.76 1625.55 7896.76 1625.55 7919.76 1625.55 7942.5 1625.55"
           stroke="#4EA72E"
           stroke-width="9.16667"
           stroke-linecap="round"
           stroke-linejoin="round"
           stroke-miterlimit="10"
           stroke-opacity="1"
           fill="none"
           fill-rule="nonzero"
           id="path9" /></g><g
         id="g10"><path
           d="M3679.5 1625.55 3701.62 1632.55 3723.62 1638.55 3746.62 1644.55 3768.62 1651.55 3791.62 1657.55 3813.63 1670.55 3836.63 1670.55 3858.63 1664.55 3880.63 1670.55 3903.63 1677.56 3925.63 1683.56 3948.63 1683.56 3970.63 1689.56 3993.63 1683.56 4015.63 1683.56 4038.63 1683.56 4060.63 1677.56 4082.63 1670.55 4105.63 1677.56 4127.64 1683.56 4150.64 1683.56 4172.64 1683.56 4195.64 1683.56 4217.64 1683.56 4239.64 1677.56 4262.64 1677.56 4284.64 1677.56 4307.64 1683.56 4329.64 1683.56 4352.64 1689.56 4374.64 1677.56 4396.64 1670.55 4419.65 1677.56 4441.65 1677.56 4464.65 1670.55 4486.65 1677.56 4509.65 1677.56 4531.65 1683.56 4554.65 1683.56 4576.65 1683.56 4598.65 1683.56 4621.65 1683.56 4643.65 1689.56 4666.65 1683.56 4688.65 1683.56 4711.65 1683.56 4733.66 1689.56 4755.66 1689.56 4778.66 1689.56 4800.66 1696.56 4823.66 1696.56 4845.66 1696.56 4868.66 1702.56 4890.66 1702.56 4913.66 1702.56 4935.66 1651.55 4957.66 1644.55 4980.66 1619.55 5002.66 1587.55 5025.67 1574.55 5047.67 1567.55 5070.67 1535.55 5092.67 1516.55 5114.67 1471.55 5137.67 1420.55 5159.67 1394.55 5182.67 1382.55 5204.67 1349.54 5227.67 1330.54 5249.67 1317.54 5271.67 1305.54 5294.67 1292.54 5316.67 1272.54 5339.68 1266.54 5361.68 1247.54 5384.68 1253.54 5406.68 1279.54 5429.68 1394.55 5451.68 1625.55 5473.68 1741.56 5496.68 1843.56 5518.68 1914.56 5541.68 1965.56 5563.68 2074.57 5586.68 2106.57 5608.68 2113.57 5630.69 2132.57 5653.69 2170.57 5675.69 2209.57 5698.69 2234.57 5720.69 2254.57 5743.69 2279.57 5765.69 2337.58 5788.69 2363.58 5810.69 2382.5 5832.69 2376.58 5855.69 2318.58 5877.69 2183.57 5900.69 2087.57 5922.69 1965.56 5945.7 1824.56 5967.7 1773.56 5989.7 1779.56 6012.7 1786.56 6034.7 1786.56 6057.7 1786.56 6079.7 1792.56 6102.7 1798.56 6124.7 1830.56 6146.7 1888.56 6169.7 1959.56 6191.7 2087.57 6214.7 2215.57 6236.7 2267.57 6259.71 2267.57 6281.71 2267.57 6304.71 2267.57 6326.71 2267.57 6348.71 2267.57 6371.71 2267.57 6393.71 2267.57 6416.71 2267.57 6438.71 2267.57 6461.71 2267.57 6483.71 2267.57 6505.71 2267.57 6528.71 2267.57 6550.71 2267.57 6573.72 2267.57 6595.72 2267.57 6618.72 2267.57 6640.72 2267.57 6663.72 2267.57 6685.72 2267.57 6707.72 2267.57 6730.72 2267.57 6752.72 2267.57 6775.72 2267.57 6797.72 2267.57 6820.72 2267.57 6842.72 2267.57 6864.73 2267.57 6887.73 2267.57 6909.73 2267.57 6932.73 2267.57 6954.73 2267.57 6977.73 2267.57 6999.73 2267.57 7021.73 2267.57 7044.73 2267.57 7066.73 2260.57 7089.73 2222.57 7111.73 2157.57 7134.73 2068.57 7156.73 1946.56 7179.74 1798.56 7201.74 1625.55 7223.74 1433.55 7246.74 1221.54 7268.74 984.5 7291.74 984.5 7313.74 984.5 7336.74 984.5 7358.74 984.5 7380.74 984.5 7403.74 984.5 7425.74 984.5 7448.74 984.5 7470.75 984.5 7493.75 984.5 7515.75 984.5 7537.75 984.5 7560.75 984.5 7582.75 984.5 7605.75 984.5 7627.75 984.5 7650.75 984.5 7672.75 984.5 7695.75 984.5 7717.75 990.533 7739.75 990.533 7762.75 997.533 7784.76 1010.53 7807.76 1016.53 7829.76 1010.53 7852.76 1003.53 7874.76 1010.53 7896.76 1016.53 7919.76 1016.53 7942.5 1016.53"
           stroke="#4E95D9"
           stroke-width="9.16667"
           stroke-linecap="round"
           stroke-linejoin="round"
           stroke-miterlimit="10"
           stroke-opacity="1"
           fill="none"
           fill-rule="nonzero"
           id="path10" /></g><g
         id="g11"><path
           d="M3701.5 1625.55 3723.62 1619.55 3746.62 1612.55 3768.62 1606.55 3791.62 1600.55 3813.63 1593.55 3836.63 1580.55 3858.63 1580.55 3880.63 1587.55 3903.63 1580.55 3925.63 1574.55 3948.63 1567.55 3970.63 1567.55 3993.63 1561.55 4015.63 1567.55 4038.63 1567.55 4060.63 1567.55 4082.63 1574.55 4105.63 1580.55 4127.64 1574.55 4150.64 1567.55 4172.64 1567.55 4195.64 1567.55 4217.64 1567.55 4239.64 1567.55 4262.64 1574.55 4284.64 1574.55 4307.64 1574.55 4329.64 1567.55 4352.64 1567.55 4374.64 1561.55 4396.64 1574.55 4419.65 1580.55 4441.65 1574.55 4464.65 1574.55 4486.65 1580.55 4509.65 1574.55 4531.65 1574.55 4554.65 1567.55 4576.65 1567.55 4598.65 1567.55 4621.65 1567.55 4643.65 1567.55 4666.65 1561.55 4688.65 1567.55 4711.65 1567.55 4733.66 1567.55 4755.66 1561.55 4778.66 1561.55 4800.66 1561.55 4823.66 1555.55 4845.66 1555.55 4868.66 1555.55 4890.66 1548.55 4913.66 1548.55 4935.66 1548.55 4957.66 1497.55 4980.66 1478.55 5002.66 1452.55 5025.67 1420.55 5047.67 1407.55 5070.67 1388.55 5092.67 1356.54 5114.67 1337.54 5137.67 1292.54 5159.67 1240.54 5182.67 1215.54 5204.67 1189.54 5227.67 1157.54 5249.67 1138.54 5271.67 1112.54 5294.67 1112.54 5316.67 1087.54 5339.68 1067.54 5361.68 1061.54 5384.68 1042.53 5406.68 1035.53 5429.68 1061.54 5451.68 1176.54 5473.68 1407.55 5496.68 1510.55 5518.68 1600.55 5541.68 1670.55 5563.68 1721.56 5586.68 1830.56 5608.68 1862.56 5630.69 1869.56 5653.69 1875.56 5675.69 1914.56 5698.69 1952.56 5720.69 1978.57 5743.69 1997.57 5765.69 2023.57 5788.69 2068.57 5810.69 2093.57 5832.69 2113.57 5855.69 2106.57 5877.69 2036.57 5900.69 1901.56 5922.69 1805.56 5945.7 1683.56 5967.7 1542.55 5989.7 1478.55 6012.7 1471.55 6034.7 1465.55 6057.7 1465.55 6079.7 1465.55 6102.7 1458.55 6124.7 1452.55 6146.7 1420.55 6169.7 1362.54 6191.7 1292.54 6214.7 1163.54 6236.7 1035.53 6259.71 984.5 6281.71 984.5 6304.71 984.5 6326.71 984.5 6348.71 984.5 6371.71 984.5 6393.71 984.5 6416.71 984.5 6438.71 984.5 6461.71 984.5 6483.71 984.5 6505.71 984.5 6528.71 984.5 6550.71 984.5 6573.72 984.5 6595.72 984.5 6618.72 984.5 6640.72 984.5 6663.72 984.5 6685.72 984.5 6707.72 984.5 6730.72 984.5 6752.72 984.5 6775.72 984.5 6797.72 984.5 6820.72 984.5 6842.72 984.5 6864.73 984.5 6887.73 984.5 6909.73 984.5 6932.73 984.5 6954.73 984.5 6977.73 984.5 6999.73 984.5 7021.73 984.5 7044.73 984.5 7066.73 984.5 7089.73 990.533 7111.73 1029.53 7134.73 1093.54 7156.73 1183.54 7179.74 1305.54 7201.74 1452.55 7223.74 1625.55 7246.74 1818.56 7268.74 2029.57 7291.74 2267.5 7313.74 2267.5 7336.74 2267.5 7358.74 2267.5 7380.74 2267.5 7403.74 2267.5 7425.74 2267.5 7448.74 2267.5 7470.75 2267.5 7493.75 2267.5 7515.75 2267.5 7537.75 2267.5 7560.75 2267.5 7582.75 2267.5 7605.75 2267.5 7627.75 2267.5 7650.75 2267.5 7672.75 2267.5 7695.75 2267.5 7717.75 2267.5 7739.75 2260.57 7762.75 2260.57 7784.76 2254.57 7807.76 2241.57 7829.76 2234.57 7852.76 2241.57 7874.76 2247.57 7896.76 2241.57 7919.76 2234.57 7942.5 2234.57"
           stroke="#A02B93"
           stroke-width="9.16667"
           stroke-linecap="round"
           stroke-linejoin="round"
           stroke-miterlimit="10"
           stroke-opacity="1"
           fill="none"
           fill-rule="nonzero"
           id="path11" /></g><g
         id="g12"><text
           fill="#595959"
           fill-opacity="1"
           font-family="Aptos Narrow,Aptos Narrow_MSFontService,sans-serif"
           font-style="normal"
           font-variant="normal"
           font-weight="400"
           font-stretch="semi-condensed"
           font-size="41"
           text-anchor="start"
           direction="ltr"
           writing-mode="lr-tb"
           unicode-bidi="normal"
           text-decoration="none"
           transform="matrix(1 0 0 1 3543.33 3240)"
           id="text11">-150</text></g><g
         id="g13"><text
           fill="#595959"
           fill-opacity="1"
           font-family="Aptos Narrow,Aptos Narrow_MSFontService,sans-serif"
           font-style="normal"
           font-variant="normal"
           font-weight="400"
           font-stretch="semi-condensed"
           font-size="41"
           text-anchor="start"
           direction="ltr"
           writing-mode="lr-tb"
           unicode-bidi="normal"
           text-decoration="none"
           transform="matrix(1 0 0 1 3543.33 2919)"
           id="text12">-100</text></g><g
         id="g14"><text
           fill="#595959"
           fill-opacity="1"
           font-family="Aptos Narrow,Aptos Narrow_MSFontService,sans-serif"
           font-style="normal"
           font-variant="normal"
           font-weight="400"
           font-stretch="semi-condensed"
           font-size="41"
           text-anchor="start"
           direction="ltr"
           writing-mode="lr-tb"
           unicode-bidi="normal"
           text-decoration="none"
           transform="matrix(1 0 0 1 3564.23 2598)"
           id="text13">-50</text></g><g
         id="g15"><text
           fill="#595959"
           fill-opacity="1"
           font-family="Aptos Narrow,Aptos Narrow_MSFontService,sans-serif"
           font-style="normal"
           font-variant="normal"
           font-weight="400"
           font-stretch="semi-condensed"
           font-size="41"
           text-anchor="start"
           direction="ltr"
           writing-mode="lr-tb"
           unicode-bidi="normal"
           text-decoration="none"
           transform="matrix(1 0 0 1 3597.76 2278)"
           id="text14">0</text></g><g
         id="g16"><text
           fill="#595959"
           fill-opacity="1"
           font-family="Aptos Narrow,Aptos Narrow_MSFontService,sans-serif"
           font-style="normal"
           font-variant="normal"
           font-weight="400"
           font-stretch="semi-condensed"
           font-size="41"
           text-anchor="start"
           direction="ltr"
           writing-mode="lr-tb"
           unicode-bidi="normal"
           text-decoration="none"
           transform="matrix(1 0 0 1 3576.86 1957)"
           id="text15">50</text></g><g
         id="g17"><text
           fill="#595959"
           fill-opacity="1"
           font-family="Aptos Narrow,Aptos Narrow_MSFontService,sans-serif"
           font-style="normal"
           font-variant="normal"
           font-weight="400"
           font-stretch="semi-condensed"
           font-size="41"
           text-anchor="start"
           direction="ltr"
           writing-mode="lr-tb"
           unicode-bidi="normal"
           text-decoration="none"
           transform="matrix(1 0 0 1 3555.96 1636)"
           id="text16">100</text></g><g
         id="g18"><text
           fill="#595959"
           fill-opacity="1"
           font-family="Aptos Narrow,Aptos Narrow_MSFontService,sans-serif"
           font-style="normal"
           font-variant="normal"
           font-weight="400"
           font-stretch="semi-condensed"
           font-size="41"
           text-anchor="start"
           direction="ltr"
           writing-mode="lr-tb"
           unicode-bidi="normal"
           text-decoration="none"
           transform="matrix(1 0 0 1 3555.96 1316)"
           id="text17">150</text></g><g
         id="g19"><text
           fill="#595959"
           fill-opacity="1"
           font-family="Aptos Narrow,Aptos Narrow_MSFontService,sans-serif"
           font-style="normal"
           font-variant="normal"
           font-weight="400"
           font-stretch="semi-condensed"
           font-size="41"
           text-anchor="start"
           direction="ltr"
           writing-mode="lr-tb"
           unicode-bidi="normal"
           text-decoration="none"
           transform="matrix(1 0 0 1 3555.96 995)"
           id="text18">200</text></g><g
         id="g20"><text
           fill="#595959"
           fill-opacity="1"
           font-family="Aptos Narrow,Aptos Narrow_MSFontService,sans-serif"
           font-style="normal"
           font-variant="normal"
           font-weight="400"
           font-stretch="semi-condensed"
           font-size="41"
           text-anchor="start"
           direction="ltr"
           writing-mode="lr-tb"
           unicode-bidi="normal"
           text-decoration="none"
           transform="matrix(1 0 0 1 3555.96 674)"
           id="text19">250</text></g><g
         id="g21"
         transform="translate(-120.89901,-2.8785478)"><path
           d="m 4707.5,3315.5 h 88"
           stroke="#c04f15"
           stroke-width="9.16667"
           stroke-linecap="round"
           stroke-linejoin="round"
           stroke-miterlimit="10"
           stroke-opacity="1"
           fill="none"
           fill-rule="evenodd"
           id="path20" /></g><g
         id="g22"
         transform="translate(-112.26337)"><text
           fill="#595959"
           fill-opacity="1"
           font-family="'Aptos Narrow', 'Aptos Narrow_MSFontService', sans-serif"
           font-style="normal"
           font-variant="normal"
           font-weight="400"
           font-stretch="semi-condensed"
           font-size="64px"
           text-anchor="start"
           direction="ltr"
           writing-mode="lr-tb"
           unicode-bidi="normal"
           text-decoration="none"
           transform="translate(4804.52,3334)"
           id="text21"
           style="text-decoration:none;text-decoration-line:none">desired pitch </text></g><g
         id="g23"
         transform="translate(-28.785478)"><text
           fill="#595959"
           fill-opacity="1"
           font-family="'Cambria Math', 'Cambria Math_MSFontService', sans-serif"
           font-style="normal"
           font-variant="normal"
           font-weight="400"
           font-stretch="normal"
           font-size="64px"
           text-anchor="start"
           direction="ltr"
           writing-mode="lr-tb"
           unicode-bidi="normal"
           text-decoration="none"
           transform="translate(5148.07,3334)"
           id="text22"
           style="text-decoration:none;text-decoration-line:none">⋅</text></g><g
         id="g24"
         transform="translate(-28.785478)"><text
           fill="#595959"
           fill-opacity="1"
           font-family="'Aptos Narrow', 'Aptos Narrow_MSFontService', sans-serif"
           font-style="normal"
           font-variant="normal"
           font-weight="400"
           font-stretch="semi-condensed"
           font-size="64px"
           text-anchor="start"
           direction="ltr"
           writing-mode="lr-tb"
           unicode-bidi="normal"
           text-decoration="none"
           transform="translate(5178.18,3334)"
           id="text23"
           style="text-decoration:none;text-decoration-line:none">10</text></g><g
         id="g25"
         transform="translate(-28.785478)"><path
           d="m 5322.5,3315.5 h 88"
           stroke="#104862"
           stroke-width="9.16667"
           stroke-linecap="round"
           stroke-linejoin="round"
           stroke-miterlimit="10"
           stroke-opacity="1"
           fill="none"
           fill-rule="evenodd"
           id="path24" /></g><g
         id="g26"
         transform="translate(-28.785478)"><text
           fill="#595959"
           fill-opacity="1"
           font-family="'Aptos Narrow', 'Aptos Narrow_MSFontService', sans-serif"
           font-style="normal"
           font-variant="normal"
           font-weight="400"
           font-stretch="semi-condensed"
           font-size="64px"
           text-anchor="start"
           direction="ltr"
           writing-mode="lr-tb"
           unicode-bidi="normal"
           text-decoration="none"
           transform="translate(5420.25,3334)"
           id="text25"
           style="text-decoration:none;text-decoration-line:none">pitch </text></g><g
         id="g27"><text
           fill="#595959"
           fill-opacity="1"
           font-family="Cambria Math,Cambria Math_MSFontService,sans-serif"
           font-style="normal"
           font-variant="normal"
           font-weight="400"
           font-stretch="normal"
           font-size="64"
           text-anchor="start"
           direction="ltr"
           writing-mode="lr-tb"
           unicode-bidi="normal"
           text-decoration="none"
           transform="matrix(1 0 0 1 5561.69 3334)"
           id="text26">⋅</text></g><g
         id="g28"><text
           fill="#595959"
           fill-opacity="1"
           font-family="Aptos Narrow,Aptos Narrow_MSFontService,sans-serif"
           font-style="normal"
           font-variant="normal"
           font-weight="400"
           font-stretch="semi-condensed"
           font-size="64"
           text-anchor="start"
           direction="ltr"
           writing-mode="lr-tb"
           unicode-bidi="normal"
           text-decoration="none"
           transform="matrix(1 0 0 1 5591.81 3334)"
           id="text27">10</text></g><g
         id="g29"><path
           d="M5736.5 3315.5 5824.5 3315.5"
           stroke="#4EA72E"
           stroke-width="9.16667"
           stroke-linecap="round"
           stroke-linejoin="round"
           stroke-miterlimit="10"
           stroke-opacity="1"
           fill="none"
           fill-rule="evenodd"
           id="path28" /></g><g
         id="g30"><text
           fill="#595959"
           fill-opacity="1"
           font-family="Aptos Narrow,Aptos Narrow_MSFontService,sans-serif"
           font-style="normal"
           font-variant="normal"
           font-weight="400"
           font-stretch="semi-condensed"
           font-size="64"
           text-anchor="start"
           direction="ltr"
           writing-mode="lr-tb"
           unicode-bidi="normal"
           text-decoration="none"
           transform="matrix(1 0 0 1 5833.88 3333)"
           id="text29">thrust</text></g><g
         id="g31"><path
           d="M6065.5 3315.5 6153.5 3315.5"
           stroke="#4E95D9"
           stroke-width="9.16667"
           stroke-linecap="round"
           stroke-linejoin="round"
           stroke-miterlimit="10"
           stroke-opacity="1"
           fill="none"
           fill-rule="evenodd"
           id="path30" /></g><g
         id="g32"><text
           fill="#595959"
           fill-opacity="1"
           font-family="Aptos Narrow,Aptos Narrow_MSFontService,sans-serif"
           font-style="normal"
           font-variant="normal"
           font-weight="400"
           font-stretch="semi-condensed"
           font-size="64"
           text-anchor="start"
           direction="ltr"
           writing-mode="lr-tb"
           unicode-bidi="normal"
           text-decoration="none"
           transform="matrix(1 0 0 1 6162.46 3333)"
           id="text31">front motors</text></g><g
         id="g33"
         transform="translate(48.935313,-2.8785478)"><path
           d="m 6558.5,3315.5 h 88"
           stroke="#a02b93"
           stroke-width="9.16667"
           stroke-linecap="round"
           stroke-linejoin="round"
           stroke-miterlimit="10"
           stroke-opacity="1"
           fill="none"
           fill-rule="evenodd"
           id="path32" /></g><g
         id="g34"
         transform="translate(48.935313,-2.8785478)"><text
           fill="#595959"
           fill-opacity="1"
           font-family="'Aptos Narrow', 'Aptos Narrow_MSFontService', sans-serif"
           font-style="normal"
           font-variant="normal"
           font-weight="400"
           font-stretch="semi-condensed"
           font-size="64px"
           text-anchor="start"
           direction="ltr"
           writing-mode="lr-tb"
           unicode-bidi="normal"
           text-decoration="none"
           transform="translate(6655.52,3333)"
           id="text33"
           style="text-decoration:none;text-decoration-line:none">back motors</text></g><rect
         x="3448.5"
         y="614.5"
         width="4768"
         height="2781"
         stroke="#D9D9D9"
         stroke-width="3.4375"
         stroke-linecap="butt"
         stroke-linejoin="round"
         stroke-miterlimit="10"
         stroke-opacity="1"
         fill="none"
         id="rect34" /></g></g></svg>
