<?xml version="1.0" encoding="UTF-8" standalone="no"?>
<svg
   width="5197"
   height="2755"
   xml:space="preserve"
   overflow="hidden"
   version="1.1"
   id="svg33"
   sodipodi:docname="p_plot.svg"
   inkscape:version="1.4 (e7c3feb1, 2024-10-09)"
   xmlns:inkscape="http://www.inkscape.org/namespaces/inkscape"
   xmlns:sodipodi="http://sodipodi.sourceforge.net/DTD/sodipodi-0.dtd"
   xmlns="http://www.w3.org/2000/svg"
   xmlns:svg="http://www.w3.org/2000/svg"><sodipodi:namedview
     id="namedview33"
     pagecolor="#ffffff"
     bordercolor="#000000"
     borderopacity="0.25"
     inkscape:showpageshadow="2"
     inkscape:pageopacity="0.0"
     inkscape:pagecheckerboard="0"
     inkscape:deskcolor="#d1d1d1"
     inkscape:zoom="0.24424306"
     inkscape:cx="2847.5732"
     inkscape:cy="1564.0158"
     inkscape:window-width="1800"
     inkscape:window-height="1047"
     inkscape:window-x="0"
     inkscape:window-y="44"
     inkscape:window-maximized="0"
     inkscape:current-layer="g32" /><defs
     id="defs2"><clipPath
       id="clip0"><rect
         x="3740"
         y="2080"
         width="5197"
         height="2755"
         id="rect1" /></clipPath><clipPath
       id="clip1"><rect
         x="3740"
         y="2080"
         width="5197"
         height="2755"
         id="rect2" /></clipPath></defs><g
     clip-path="url(#clip0)"
     transform="translate(-3740 -2080)"
     id="g33"><g
       clip-path="url(#clip1)"
       id="g32"><rect
         x="3743"
         y="2086"
         width="5190"
         height="2747"
         fill="#FFFFFF"
         fill-opacity="1"
         id="rect3" /><g
         id="g3"><path
           d="M3970.5 4667.5 8854.5 4667.5M3970.5 4170.64 8854.5 4170.64M3970.5 3177.6 8854.5 3177.6M3970.5 2681.59 8854.5 2681.59M3970.5 2184.5 8854.5 2184.5"
           stroke="#D9D9D9"
           stroke-width="3.4375"
           stroke-linecap="butt"
           stroke-linejoin="round"
           stroke-miterlimit="10"
           stroke-opacity="1"
           fill="none"
           fill-rule="nonzero"
           id="path3" /></g><g
         id="g4"><path
           d="M4458.65 2135.5 4458.65 4667.5M4946.66 2135.5 4946.66 4667.5M5435.68 2135.5 5435.68 4667.5M5923.69 2135.5 5923.69 4667.5M6411.71 2135.5 6411.71 4667.5M6900.73 2135.5 6900.73 4667.5M7388.74 2135.5 7388.74 4667.5M7877.76 2135.5 7877.76 4667.5M8365.77 2135.5 8365.77 4667.5M8854.5 2135.5 8854.5 4667.5"
           stroke="#D9D9D9"
           stroke-width="3.4375"
           stroke-linecap="butt"
           stroke-linejoin="round"
           stroke-miterlimit="10"
           stroke-opacity="1"
           fill="none"
           fill-rule="nonzero"
           id="path4" /></g><g
         id="g5"><path
           d="M0 0 0.000360892 2532"
           stroke="#BFBFBF"
           stroke-width="3.4375"
           stroke-linecap="butt"
           stroke-linejoin="round"
           stroke-miterlimit="10"
           stroke-opacity="1"
           fill="none"
           fill-rule="evenodd"
           transform="matrix(1 0 0 -1 3970.5 4667.5)"
           id="path5" /></g><g
         id="g6"><path
           d="M3970.5 3674.5 8854.5 3674.5"
           stroke="#BFBFBF"
           stroke-width="3.4375"
           stroke-linecap="butt"
           stroke-linejoin="round"
           stroke-miterlimit="10"
           stroke-opacity="1"
           fill="none"
           fill-rule="evenodd"
           id="path6" /></g><g
         id="g7"><path
           d="M3980.5 3674.62 3989.63 3674.62 3999.63 3674.62 4009.63 3674.62 4018.63 3674.62 4028.63 3674.62 4038.63 3674.62 4048.63 3674.62 4058.63 3674.62 4067.63 3674.62 4077.63 3674.62 4087.63 3674.62 4097.63 3674.62 4106.64 3674.62 4116.64 3674.62 4126.64 3674.62 4136.64 3674.62 4145.64 3674.62 4155.64 3674.62 4165.64 3674.62 4175.64 3674.62 4185.64 3674.62 4194.64 3674.62 4204.64 3674.62 4214.64 3674.62 4224.64 3674.62 4233.64 3674.62 4243.64 3674.62 4253.64 3674.62 4263.64 3674.62 4272.64 3674.62 4282.64 3674.62 4292.64 3674.62 4302.64 3674.62 4312.64 3674.62 4321.64 3674.62 4331.64 3674.62 4341.64 3674.62 4351.64 3674.62 4360.64 3674.62 4370.64 3674.62 4380.64 3674.62 4390.64 3674.62 4399.64 3674.62 4409.65 3674.62 4419.65 3674.62 4429.65 3674.62 4438.65 3674.62 4448.65 3674.62 4458.65 3674.62 4468.65 3674.62 4478.65 3674.62 4487.65 3674.62 4497.65 3674.62 4507.65 3674.62 4517.65 3674.62 4526.65 3674.62 4536.65 3674.62 4546.65 3674.62 4556.65 3674.62 4565.65 3674.62 4575.65 3674.62 4585.65 3674.62 4595.65 3674.62 4605.65 3674.62 4614.65 3674.62 4624.65 3674.62 4634.65 3674.62 4644.65 3674.62 4653.65 3674.62 4663.65 3674.62 4673.65 3674.62 4683.65 3674.62 4692.65 3674.62 4702.65 3674.62 4712.65 3674.62 4722.66 3674.62 4731.66 3674.62 4741.66 3674.62 4751.66 3674.62 4761.66 3674.62 4771.66 3674.62 4780.66 3674.62 4790.66 3674.62 4800.66 3674.62 4810.66 3674.62 4819.66 3674.62 4829.66 3674.62 4839.66 3697.62 4849.66 3697.62 4858.66 3697.62 4868.66 3701.62 4878.66 3693.62 4888.66 3681.62 4898.66 3685.62 4907.66 3689.62 4917.66 3689.62 4927.66 3701.62 4937.66 3720.62 4946.66 3751.62 4956.66 3771.62 4966.66 3794.62 4976.66 3821.63 4985.66 3833.63 4995.66 3860.63 5005.66 3864.63 5015.67 3875.63 5025.67 3883.63 5034.67 3895.63 5044.67 3937.63 5054.67 3969.5 5064.67 3969.5 5073.67 3969.5 5083.67 3965.63 5093.67 3965.63 5103.67 3965.63 5112.67 3953.63 5122.67 3941.63 5132.67 3910.63 5142.67 3879.63 5151.67 3848.63 5161.67 3821.63 5171.67 3728.62 5181.67 3674.62 5191.67 3674.62 5200.67 3608.62 5210.67 3534.62 5220.67 3468.61 5230.67 3418.61 5239.67 3394.61 5249.67 3379.61 5259.67 3344.61 5269.67 3301.61 5278.67 3286.61 5288.67 3278.61 5298.67 3267.5 5308.67 3267.5 5318.67 3274.61 5327.68 3278.61 5337.68 3282.61 5347.68 3294.61 5357.68 3301.61 5366.68 3313.61 5376.68 3325.61 5386.68 3344.61 5396.68 3356.61 5405.68 3383.61 5415.68 3394.61 5425.68 3410.61 5435.68 3441.61 5445.68 3476.61 5454.68 3491.61 5464.68 3507.62 5474.68 3522.62 5484.68 3546.62 5493.68 3577.62 5503.68 3619.62 5513.68 3646.62 5523.68 3674.62 5532.68 3674.62 5542.68 3674.62 5552.68 3674.62 5562.68 3674.62 5571.68 3674.62 5581.68 3674.62 5591.68 3674.62 5601.68 3674.62 5611.68 3674.62 5620.68 3674.62 5630.69 3674.62 5640.69 3674.62 5650.69 3674.62 5659.69 3674.62 5669.69 3674.62 5679.69 3674.62 5689.69 3674.62 5698.69 3674.62 5708.69 3674.62 5718.69 3674.62 5728.69 3674.62 5738.69 3674.62 5747.69 3674.62 5757.69 3674.62 5767.69 3674.62 5777.69 3674.62 5786.69 3674.62 5796.69 3674.62 5806.69 3674.62 5816.69 3674.62 5825.69 3674.62 5835.69 3674.62 5845.69 3674.62 5855.69 3674.62 5865.69 3674.62 5874.69 3674.62 5884.69 3674.62 5894.69 3674.62 5904.69 3674.62 5913.69 3674.62 5923.69 3674.62 5933.69 3674.62 5943.7 3674.62 5952.7 3674.62 5962.7 3674.62 5972.7 3674.62 5982.7 3674.62 5991.7 3674.62 6001.7 3674.62 6011.7 3674.62 6021.7 3674.62 6031.7 3674.62 6040.7 3674.62 6050.7 3674.62 6060.7 3674.62 6070.7 3674.62 6079.7 3674.62 6089.7 3674.62 6099.7 3674.62 6109.7 3674.62 6118.7 3674.62 6128.7 3674.62 6138.7 3674.62 6148.7 3674.62 6158.7 3674.62 6167.7 3674.62 6177.7 3674.62 6187.7 3674.62 6197.7 3674.62 6206.7 3674.62 6216.7 3674.62 6226.7 3674.62 6236.71 3674.62 6245.71 3674.62 6255.71 3674.62 6265.71 3674.62 6275.71 3674.62 6284.71 3674.62 6294.71 3674.62 6304.71 3674.62 6314.71 3674.62 6324.71 3674.62 6333.71 3674.62 6343.71 3674.62 6353.71 3674.62 6363.71 3674.62 6372.71 3674.62 6382.71 3674.62 6392.71 3674.62 6402.71 3674.62 6411.71 3674.62 6421.71 3674.62 6431.71 3674.62 6441.71 3674.62 6451.71 3674.62 6460.71 3674.62 6470.71 3674.62 6480.71 3674.62 6490.71 3674.62 6499.71 3674.62 6509.71 3674.62 6519.71 3674.62 6529.71 3674.62 6538.71 3394.61 6548.72 3402.61 6558.72 3674.62 6568.72 3674.62 6578.72 3674.62 6587.72 3674.62 6597.72 3674.62 6607.72 3674.62 6617.72 3674.62 6626.72 3674.62 6636.72 3674.62 6646.72 3674.62 6656.72 3674.62 6665.72 3674.62 6675.72 3674.62 6685.72 3674.62 6695.72 3674.62 6704.72 3674.62 6714.72 3674.62 6724.72 3674.62 6734.72 3674.62 6744.72 3674.62 6753.72 3674.62 6763.72 3674.62 6773.72 3674.62 6783.72 3674.62 6792.72 3674.62 6802.72 3674.62 6812.72 3674.62 6822.72 3674.62 6831.72 3674.62 6841.72 3674.62 6851.73 3674.62 6861.73 3674.62 6871.73 3674.62 6880.73 3674.62 6890.73 3674.62 6900.73 3674.62 6910.73 3674.62 6919.73 3674.62 6929.73 3674.62 6939.73 3674.62 6949.73 3674.62 6958.73 3674.62 6968.73 3674.62 6978.73 3674.62 6988.73 3674.62 6998.73 3674.62 7007.73 3674.62 7017.73 3674.62 7027.73 3674.62 7037.73 3674.62 7046.73 3674.62 7056.73 3674.62 7066.73 3674.62 7076.73 3674.62 7085.73 3674.62 7095.73 3674.62 7105.73 3674.62 7115.73 3674.62 7124.73 3674.62 7134.73 3674.62 7144.73 3674.62 7154.73 3674.62 7164.74 3674.62 7173.74 3674.62 7183.74 3674.62 7193.74 3674.62 7203.74 3674.62 7212.74 3674.62 7222.74 3674.62 7232.74 3674.62 7242.74 3674.62 7251.74 3674.62 7261.74 3674.62 7271.74 3674.62 7281.74 3674.62 7291.74 3674.62 7300.74 3674.62 7310.74 3674.62 7320.74 3674.62 7330.74 3674.62 7339.74 3674.62 7349.74 3674.62 7359.74 3674.62 7369.74 3674.62 7378.74 3674.62 7388.74 3674.62 7398.74 3674.62 7408.74 3674.62 7417.74 3674.62 7427.74 3674.62 7437.74 3674.62 7447.74 3674.62 7457.75 3674.62 7466.75 3674.62 7476.75 3674.62 7486.75 3674.62 7496.75 3674.62 7505.75 3674.62 7515.75 3674.62 7525.75 3674.62 7535.75 3674.62 7544.75 3674.62 7554.75 3674.62 7564.75 3674.62 7574.75 3674.62 7584.75 3674.62 7593.75 3674.62 7603.75 3674.62 7613.75 3674.62 7623.75 3674.62 7632.75 3674.62 7642.75 3674.62 7652.75 3674.62 7662.75 3674.62 7671.75 3674.62 7681.75 3674.62 7691.75 3674.62 7701.75 3674.62 7711.75 3674.62 7720.75 3674.62 7730.75 3674.62 7740.75 3674.62 7750.75 3674.62 7759.75 3674.62 7769.76 3674.62 7779.76 3674.62 7789.76 3674.62 7798.76 3674.62 7808.76 3674.62 7818.76 3674.62 7828.76 3674.62 7837.76 3674.62 7847.76 3674.62 7857.76 3674.62 7867.76 3674.62 7877.76 3674.62 7886.76 3674.62 7896.76 3674.62 7906.76 3674.62 7916.76 3674.62 7925.76 3674.62 7935.76 3674.62 7945.76 3674.62 7955.76 3674.62 7964.76 3674.62 7974.76 3674.62 7984.76 3674.62 7994.76 3674.62 8004.76 3674.62 8013.76 3674.62 8023.76 3674.62 8033.76 3674.62 8043.76 3674.62 8052.76 3674.62 8062.76 3674.62 8072.77 3674.62 8082.77 3674.62 8091.77 3674.62 8101.77 3674.62 8111.77 3674.62 8121.77 3674.62 8131.77 3674.62 8140.77 3674.62 8150.77 3674.62 8160.77 3674.62 8170.77 3674.62 8179.77 3674.62 8189.77 3674.62 8199.77 3674.62 8209.77 3674.62 8218.77 3674.62 8228.77 3674.62 8238.77 3674.62 8248.77 3674.62 8257.77 3674.62 8267.77 3674.62 8277.77 3674.62 8287.77 3674.62 8297.77 3674.62 8306.77 3674.62 8316.77 3674.62 8326.77 3674.62 8336.77 3674.62 8345.77 3674.62 8355.77 3674.62 8365.77 3674.62 8375.78 3674.62 8384.78 3674.62 8394.78 3674.62 8404.78 3674.62 8414.78 3674.62 8424.78 3674.62 8433.78 3674.62 8443.78 3674.62 8453.78 3674.62 8463.78 3674.62 8472.78 3674.62 8482.78 3674.62 8492.78 3674.62 8502.78 3674.62 8511.78 3674.62 8521.78 3674.62 8531.78 3674.62 8541.78 3674.62 8550.78 3674.62 8560.78 3674.62 8570.78 3674.62 8580.78 3674.62 8590.78 3674.62 8599.78 3674.62 8609.78 3674.62 8619.78 3674.62 8629.78 3674.62 8638.78 3674.62 8648.78 3674.62 8658.78 3674.62 8668.79 3674.62 8677.79 3674.62 8687.79 3674.62 8697.79 3674.62 8707.79 3674.62 8717.79 3674.62 8726.79 3674.62 8736.79 3674.62 8746.79 3674.62 8756.79 3674.62 8765.79 3674.62 8775.79 3674.62 8785.5 3674.62"
           stroke="#C04F15"
           stroke-width="9.16667"
           stroke-linecap="round"
           stroke-linejoin="round"
           stroke-miterlimit="10"
           stroke-opacity="1"
           fill="none"
           fill-rule="nonzero"
           id="path7" /></g><g
         id="g8"><path
           d="M3980.5 3670.62 3989.63 3673.62 3999.63 3674.62 4009.63 3675.62 4018.63 3673.62 4028.63 3671.62 4038.63 3672.62 4048.63 3673.62 4058.63 3675.62 4067.63 3673.62 4077.63 3675.62 4087.63 3673.62 4097.63 3670.62 4106.64 3672.62 4116.64 3673.62 4126.64 3672.62 4136.64 3675.62 4145.64 3671.62 4155.64 3671.62 4165.64 3669.62 4175.64 3672.62 4185.64 3674.62 4194.64 3672.62 4204.64 3672.62 4214.64 3672.62 4224.64 3674.62 4233.64 3675.62 4243.64 3672.62 4253.64 3673.62 4263.64 3671.62 4272.64 3671.62 4282.64 3673.62 4292.64 3674.62 4302.64 3673.62 4312.64 3673.62 4321.64 3675.62 4331.64 3671.62 4341.64 3671.62 4351.64 3672.62 4360.64 3672.62 4370.64 3670.62 4380.64 3672.62 4390.64 3675.62 4399.64 3674.62 4409.65 3673.62 4419.65 3672.62 4429.65 3675.62 4438.65 3674.62 4448.65 3672.62 4458.65 3673.62 4468.65 3673.62 4478.65 3675.62 4487.65 3674.62 4497.65 3672.62 4507.65 3672.62 4517.65 3674.62 4526.65 3673.62 4536.65 3671.62 4546.65 3672.62 4556.65 3672.62 4565.65 3676.62 4575.65 3673.62 4585.65 3672.62 4595.65 3671.62 4605.65 3670.62 4614.65 3671.62 4624.65 3673.62 4634.65 3674.62 4644.65 3674.62 4653.65 3672.62 4663.65 3674.62 4673.65 3672.62 4683.65 3671.62 4692.65 3672.62 4702.65 3671.62 4712.65 3671.62 4722.66 3672.62 4731.66 3673.62 4741.66 3672.62 4751.66 3672.62 4761.66 3675.62 4771.66 3672.62 4780.66 3672.62 4790.66 3668.62 4800.66 3678.62 4810.66 3673.62 4819.66 3678.62 4829.66 3676.62 4839.66 3673.62 4849.66 3680.62 4858.66 3685.62 4868.66 3685.62 4878.66 3669.62 4888.66 3683.62 4898.66 3689.62 4907.66 3679.62 4917.66 3675.62 4927.66 3683.62 4937.66 3684.62 4946.66 3675.62 4956.66 3682.62 4966.66 3683.62 4976.66 3686.62 4985.66 3687.62 4995.66 3683.62 5005.66 3682.62 5015.67 3651.62 5025.67 3721.62 5034.67 3747.62 5044.67 3700.62 5054.67 3670.62 5064.67 3708.62 5073.67 3699.62 5083.67 3702.62 5093.67 3688.62 5103.67 3649.62 5112.67 3707.62 5122.67 3718.62 5132.67 3698.62 5142.67 3708.62 5151.67 3700.62 5161.67 3695.62 5171.67 3707.62 5181.67 3698.62 5191.67 3706.62 5200.67 3699.62 5210.67 3693.62 5220.67 3696.62 5230.67 3708.62 5239.67 3710.62 5249.67 3707.62 5259.67 3690.62 5269.67 3707.62 5278.67 3700.62 5288.67 3701.62 5298.67 3696.62 5308.67 3700.62 5318.67 3703.62 5327.68 3701.62 5337.68 3698.62 5347.68 3702.62 5357.68 3702.62 5366.68 3698.62 5376.68 3696.62 5386.68 3694.62 5396.68 3694.62 5405.68 3716.62 5415.68 3706.62 5425.68 3703.62 5435.68 3700.62 5445.68 3696.62 5454.68 3699.62 5464.68 3702.62 5474.68 3701.62 5484.68 3699.62 5493.68 3695.62 5503.68 3692.62 5513.68 3711.62 5523.68 3706.62 5532.68 3705.62 5542.68 3699.62 5552.68 3697.62 5562.68 3698.62 5571.68 3699.62 5581.68 3704.62 5591.68 3696.62 5601.68 3694.62 5611.68 3683.62 5620.68 3636.62 5630.69 3598.62 5640.69 3566.62 5650.69 3497.61 5659.69 3476.61 5669.69 3407.61 5679.69 3348.61 5689.69 3301.61 5698.69 3265.61 5708.69 3232.61 5718.69 3214.61 5728.69 3206.61 5738.69 3184.6 5747.69 3146.6 5757.69 3102.6 5767.69 3028.6 5777.69 2992.6 5786.69 2968.5 5796.69 2994.6 5806.69 3011.6 5816.69 3052.6 5825.69 3085.6 5835.69 3124.6 5845.69 3155.6 5855.69 3163.6 5865.69 3190.6 5874.69 3212.61 5884.69 3230.61 5894.69 3267.61 5904.69 3282.61 5913.69 3337.61 5923.69 3365.61 5933.69 3392.61 5943.7 3420.61 5952.7 3433.61 5962.7 3460.61 5972.7 3499.61 5982.7 3531.62 5991.7 3554.62 6001.7 3599.62 6011.7 3629.62 6021.7 3645.62 6031.7 3692.62 6040.7 3736.62 6050.7 3772.62 6060.7 3837.63 6070.7 3906.63 6079.7 3963.63 6089.7 3981.63 6099.7 4017.63 6109.7 4050.63 6118.7 4110.64 6128.7 4197.64 6138.7 4234.64 6148.7 4268.64 6158.7 4318.64 6167.7 4356.64 6177.7 4386.64 6187.7 4429.65 6197.7 4484.65 6206.7 4561.65 6216.7 4555.65 6226.7 4582.65 6236.71 4618.5 6245.71 4580.65 6255.71 4484.65 6265.71 4406.65 6275.71 4349.64 6284.71 4301.64 6294.71 4288.64 6304.71 4259.64 6314.71 4220.64 6324.71 4166.64 6333.71 4125.64 6343.71 4094.63 6353.71 4047.63 6363.71 4005.63 6372.71 3971.63 6382.71 3972.63 6392.71 3944.63 6402.71 3939.63 6411.71 3897.63 6421.71 3869.63 6431.71 3886.63 6441.71 3836.63 6451.71 3749.62 6460.71 3718.62 6470.71 3689.62 6480.71 3690.62 6490.71 3661.62 6499.71 3646.62 6509.71 3633.62 6519.71 3633.62 6529.71 3651.62 6538.71 3673.62 6548.72 3671.62 6558.72 3677.62 6568.72 3658.62 6578.72 3666.62 6587.72 3666.62 6597.72 3655.62 6607.72 3661.62 6617.72 3661.62 6626.72 3676.62 6636.72 3689.62 6646.72 3698.62 6656.72 3693.62 6665.72 3679.62 6675.72 3694.62 6685.72 3690.62 6695.72 3662.62 6704.72 3579.62 6714.72 3553.62 6724.72 3503.62 6734.72 3438.61 6744.72 3415.61 6753.72 3418.61 6763.72 3404.61 6773.72 3422.61 6783.72 3385.61 6792.72 3363.61 6802.72 3331.61 6812.72 3306.61 6822.72 3289.61 6831.72 3277.61 6841.72 3240.61 6851.73 3189.6 6861.73 3194.6 6871.73 3219.61 6880.73 3213.61 6890.73 3207.61 6900.73 3108.6 6910.73 3099.6 6919.73 3046.6 6929.73 3068.6 6939.73 3143.6 6949.73 3186.6 6958.73 3231.61 6968.73 3238.61 6978.73 3256.61 6988.73 3288.61 6998.73 3300.61 7007.73 3298.61 7017.73 3287.61 7027.73 3272.61 7037.73 3275.61 7046.73 3294.61 7056.73 3306.61 7066.73 3289.61 7076.73 3320.61 7085.73 3317.61 7095.73 3317.61 7105.73 3334.61 7115.73 3346.61 7124.73 3341.61 7134.73 3390.61 7144.73 3425.61 7154.73 3470.61 7164.74 3452.61 7173.74 3482.61 7183.74 3482.61 7193.74 3491.61 7203.74 3510.62 7212.74 3512.62 7222.74 3505.62 7232.74 3588.62 7242.74 3533.62 7251.74 3577.62 7261.74 3563.62 7271.74 3584.62 7281.74 3615.62 7291.74 3617.62 7300.74 3619.62 7310.74 3629.62 7320.74 3638.62 7330.74 3639.62 7339.74 3651.62 7349.74 3658.62 7359.74 3678.62 7369.74 3689.62 7378.74 3690.62 7388.74 3710.62 7398.74 3716.62 7408.74 3724.62 7417.74 3728.62 7427.74 3743.62 7437.74 3747.62 7447.74 3756.62 7457.75 3758.62 7466.75 3758.62 7476.75 3778.62 7486.75 3808.63 7496.75 3810.63 7505.75 3818.63 7515.75 3828.63 7525.75 3832.63 7535.75 3851.63 7544.75 3859.63 7554.75 3868.63 7564.75 3867.63 7574.75 3882.63 7584.75 3887.63 7593.75 3892.63 7603.75 3899.63 7613.75 3903.63 7623.75 3908.63 7632.75 3895.63 7642.75 3905.63 7652.75 3906.63 7662.75 3923.63 7671.75 3927.63 7681.75 3935.63 7691.75 3936.63 7701.75 3952.63 7711.75 3958.63 7720.75 3963.63 7730.75 3971.63 7740.75 4015.63 7750.75 4026.63 7759.75 4032.63 7769.76 4030.63 7779.76 4037.63 7789.76 4045.63 7798.76 4055.63 7808.76 4073.63 7818.76 4062.63 7828.76 4053.63 7837.76 4071.63 7847.76 4068.63 7857.76 4077.63 7867.76 4093.63 7877.76 4079.63 7886.76 4072.63 7896.76 4098.63 7906.76 4105.63 7916.76 4118.64 7925.76 4144.64 7935.76 4162.64 7945.76 4220.64 7955.76 4222.64 7964.76 4254.64 7974.76 4292.64 7984.76 4327.64 7994.76 4347.64 8004.76 4348.64 8013.76 4335.64 8023.76 4351.64 8033.76 4380.64 8043.76 4395.64 8052.76 4430.65 8062.76 4417.65 8072.77 4450.65 8082.77 4462.65 8091.77 4473.65 8101.77 4474.65 8111.77 4482.65 8121.77 4497.65 8131.77 4505.65 8140.77 4522.65 8150.77 4549.65 8160.77 4546.65 8170.77 4536.65 8179.77 4527.65 8189.77 4540.65 8199.77 4503.65 8209.77 4490.65 8218.77 4462.65 8228.77 4457.65 8238.77 4446.65 8248.77 4423.65 8257.77 4423.65 8267.77 4435.65 8277.77 4427.65 8287.77 4395.64 8297.77 4385.64 8306.77 4358.64 8316.77 4358.64 8326.77 4387.64 8336.77 4378.64 8345.77 4381.64 8355.77 4387.64 8365.77 4381.64 8375.78 4370.64 8384.78 4323.64 8394.78 4335.64 8404.78 4357.64 8414.78 4349.64 8424.78 4315.64 8433.78 4270.64 8443.78 4266.64 8453.78 4230.64 8463.78 4221.64 8472.78 4210.64 8482.78 4196.64 8492.78 4186.64 8502.78 4177.64 8511.78 4169.64 8521.78 4163.64 8531.78 4174.64 8541.78 4170.64 8550.78 4179.64 8560.78 4166.64 8570.78 4141.64 8580.78 4135.64 8590.78 4124.64 8599.78 4133.64 8609.78 4132.64 8619.78 4117.64 8629.78 4087.63 8638.78 4063.63 8648.78 4060.63 8658.78 4016.63 8668.79 3966.63 8677.79 3900.63 8687.79 3861.63 8697.79 3855.63 8707.79 3683.62 8717.79 3697.62 8726.79 3694.62 8736.79 3694.62 8746.79 3695.62 8756.79 3690.62 8765.79 3681.62 8775.79 3672.62 8785.5 3624.62"
           stroke="#104862"
           stroke-width="9.16667"
           stroke-linecap="round"
           stroke-linejoin="round"
           stroke-miterlimit="10"
           stroke-opacity="1"
           fill="none"
           fill-rule="nonzero"
           id="path8" /></g><g
         id="g9"><path
           d="M3980.5 3177.6 3989.63 3177.6 3999.63 3177.6 4009.63 3177.6 4018.63 3177.6 4028.63 3177.6 4038.63 3177.6 4048.63 3177.6 4058.63 3177.6 4067.63 3177.6 4077.63 3177.6 4087.63 3177.6 4097.63 3177.6 4106.64 3177.6 4116.64 3142.6 4126.64 3119.6 4136.64 3119.6 4145.64 3107.6 4155.64 3096.6 4165.64 3084.6 4175.64 3072.6 4185.64 3057.6 4194.64 3041.6 4204.64 3034.6 4214.64 3014.6 4224.64 2968.6 4233.64 2933.6 4243.64 2917.6 4253.64 2910.6 4263.64 2902.6 4272.64 2890.6 4282.64 2879.59 4292.64 2867.59 4302.64 2848.59 4312.64 2828.59 4321.64 2824.59 4331.64 2824.59 4341.64 2817.59 4351.64 2820.59 4360.64 2828.59 4370.64 2867.59 4380.64 2898.6 4390.64 2925.6 4399.64 2976.6 4409.65 3007.6 4419.65 3045.6 4429.65 3076.6 4438.65 3119.6 4448.65 3177.6 4458.65 3177.6 4468.65 3181.6 4478.65 3177.6 4487.65 3328.61 4497.65 3433.61 4507.65 3453.61 4517.65 3456.61 4526.65 3468.61 4536.65 3495.61 4546.65 3518.62 4556.65 3553.62 4565.65 3565.62 4575.65 3577.62 4585.65 3592.62 4595.65 3604.62 4605.65 3627.62 4614.65 3646.62 4624.65 3662.62 4634.65 3670.5 4644.65 3670.5 4653.65 3670.5 4663.65 3670.5 4673.65 3658.62 4683.65 3646.62 4692.65 3639.62 4702.65 3573.62 4712.65 3491.61 4722.66 3460.61 4731.66 3429.61 4741.66 3375.61 4751.66 3321.61 4761.66 3235.61 4771.66 3216.61 4780.66 3177.6 4790.66 3177.6 4800.66 3177.6 4810.66 3177.6 4819.66 3177.6 4829.66 3177.6 4839.66 3177.6 4849.66 3177.6 4858.66 3177.6 4868.66 3177.6 4878.66 3177.6 4888.66 3177.6 4898.66 3177.6 4907.66 3177.6 4917.66 3177.6 4927.66 3177.6 4937.66 3177.6 4946.66 3177.6 4956.66 3177.6 4966.66 3177.6 4976.66 3177.6 4985.66 3177.6 4995.66 3177.6 5005.66 3177.6 5015.67 3177.6 5025.67 3177.6 5034.67 3177.6 5044.67 3177.6 5054.67 3177.6 5064.67 3177.6 5073.67 3177.6 5083.67 3177.6 5093.67 3177.6 5103.67 3177.6 5112.67 3177.6 5122.67 3177.6 5132.67 3177.6 5142.67 3177.6 5151.67 3177.6 5161.67 3177.6 5171.67 3177.6 5181.67 3177.6 5191.67 3177.6 5200.67 3177.6 5210.67 3177.6 5220.67 3177.6 5230.67 3177.6 5239.67 3177.6 5249.67 3177.6 5259.67 3177.6 5269.67 3177.6 5278.67 3177.6 5288.67 3177.6 5298.67 3177.6 5308.67 3177.6 5318.67 3177.6 5327.68 3177.6 5337.68 3177.6 5347.68 3177.6 5357.68 3177.6 5366.68 3177.6 5376.68 3177.6 5386.68 3177.6 5396.68 3177.6 5405.68 3177.6 5415.68 3177.6 5425.68 3177.6 5435.68 3177.6 5445.68 3177.6 5454.68 3177.6 5464.68 3177.6 5474.68 3177.6 5484.68 3177.6 5493.68 3177.6 5503.68 3177.6 5513.68 3177.6 5523.68 3177.6 5532.68 3177.6 5542.68 3177.6 5552.68 3177.6 5562.68 3177.6 5571.68 3177.6 5581.68 3177.6 5591.68 3177.6 5601.68 3177.6 5611.68 3177.6 5620.68 3177.6 5630.69 3177.6 5640.69 3177.6 5650.69 3177.6 5659.69 3177.6 5669.69 3177.6 5679.69 3177.6 5689.69 3177.6 5698.69 3177.6 5708.69 3177.6 5718.69 3177.6 5728.69 3177.6 5738.69 3177.6 5747.69 3177.6 5757.69 3177.6 5767.69 3177.6 5777.69 3177.6 5786.69 3177.6 5796.69 3177.6 5806.69 3177.6 5816.69 3177.6 5825.69 3177.6 5835.69 3177.6 5845.69 3177.6 5855.69 3177.6 5865.69 3177.6 5874.69 3177.6 5884.69 3177.6 5894.69 3177.6 5904.69 3177.6 5913.69 3177.6 5923.69 3177.6 5933.69 3177.6 5943.7 3177.6 5952.7 3177.6 5962.7 3177.6 5972.7 3177.6 5982.7 3177.6 5991.7 3177.6 6001.7 3177.6 6011.7 3177.6 6021.7 3177.6 6031.7 3177.6 6040.7 3177.6 6050.7 3177.6 6060.7 3177.6 6070.7 3177.6 6079.7 3177.6 6089.7 3177.6 6099.7 3177.6 6109.7 3177.6 6118.7 3177.6 6128.7 3177.6 6138.7 3177.6 6148.7 3177.6 6158.7 3177.6 6167.7 3177.6 6177.7 3177.6 6187.7 3177.6 6197.7 3177.6 6206.7 3177.6 6216.7 3177.6 6226.7 3177.6 6236.71 3177.6 6245.71 3177.6 6255.71 3177.6 6265.71 3177.6 6275.71 3177.6 6284.71 3177.6 6294.71 3177.6 6304.71 3177.6 6314.71 3177.6 6324.71 3177.6 6333.71 3177.6 6343.71 3177.6 6353.71 3177.6 6363.71 3177.6 6372.71 3177.6 6382.71 3177.6 6392.71 3177.6 6402.71 3177.6 6411.71 3177.6 6421.71 3177.6 6431.71 3177.6 6441.71 3177.6 6451.71 3177.6 6460.71 3177.6 6470.71 3177.6 6480.71 3177.6 6490.71 3177.6 6499.71 3177.6 6509.71 3177.6 6519.71 3177.6 6529.71 3177.6 6538.71 3177.6 6548.72 3177.6 6558.72 3177.6 6568.72 3177.6 6578.72 3177.6 6587.72 3177.6 6597.72 3177.6 6607.72 3177.6 6617.72 3166.6 6626.72 3158.6 6636.72 3158.6 6646.72 3158.6 6656.72 3169.6 6665.72 3177.6 6675.72 3177.6 6685.72 3177.6 6695.72 3177.6 6704.72 3177.6 6714.72 3177.6 6724.72 3177.6 6734.72 3177.6 6744.72 3177.6 6753.72 3177.6 6763.72 3177.6 6773.72 3177.6 6783.72 3177.6 6792.72 3177.6 6802.72 3177.6 6812.72 3177.6 6822.72 3177.6 6831.72 3177.6 6841.72 3177.6 6851.73 3177.6 6861.73 3177.6 6871.73 3177.6 6880.73 3177.6 6890.73 3177.6 6900.73 3177.6 6910.73 3177.6 6919.73 3177.6 6929.73 3177.6 6939.73 3177.6 6949.73 3177.6 6958.73 3135.6 6968.73 3123.6 6978.73 3111.6 6988.73 3072.6 6998.73 3030.6 7007.73 3018.6 7017.73 2991.6 7027.73 2956.6 7037.73 2933.6 7046.73 2894.6 7056.73 2890.6 7066.73 2882.59 7076.73 2879.59 7085.73 2867.59 7095.73 2863.59 7105.73 2855.59 7115.73 2844.59 7124.73 2828.59 7134.73 2809.59 7144.73 2797.59 7154.73 2793.5 7164.74 2797.59 7173.74 2805.59 7183.74 2820.59 7193.74 2836.59 7203.74 2848.59 7212.74 2859.59 7222.74 2867.59 7232.74 2882.59 7242.74 2902.6 7251.74 2925.6 7261.74 2945.6 7271.74 2960.6 7281.74 2983.6 7291.74 2999.6 7300.74 3030.6 7310.74 3041.6 7320.74 3057.6 7330.74 3080.6 7339.74 3107.6 7349.74 3138.6 7359.74 3177.6 7369.74 3177.6 7378.74 3177.6 7388.74 3177.6 7398.74 3189.6 7408.74 3197.61 7417.74 3212.61 7427.74 3228.61 7437.74 3239.61 7447.74 3259.61 7457.75 3282.61 7466.75 3313.61 7476.75 3321.61 7486.75 3332.61 7496.75 3348.61 7505.75 3359.61 7515.75 3371.61 7525.75 3391.61 7535.75 3410.61 7544.75 3425.61 7554.75 3449.61 7564.75 3480.61 7574.75 3487.61 7584.75 3487.61 7593.75 3495.61 7603.75 3499.61 7613.75 3511.62 7623.75 3511.62 7632.75 3522.62 7642.75 3530.62 7652.75 3546.62 7662.75 3565.62 7671.75 3569.62 7681.75 3569.62 7691.75 3581.62 7701.75 3592.62 7711.75 3619.62 7720.75 3635.62 7730.75 3635.62 7740.75 3635.62 7750.75 3627.62 7759.75 3615.62 7769.76 3604.62 7779.76 3584.62 7789.76 3553.62 7798.76 3507.62 7808.76 3460.61 7818.76 3437.61 7828.76 3410.61 7837.76 3359.61 7847.76 3336.61 7857.76 3309.61 7867.76 3290.61 7877.76 3259.61 7886.76 3243.61 7896.76 3228.61 7906.76 3197.61 7916.76 3177.6 7925.76 3177.6 7935.76 3177.6 7945.76 3177.6 7955.76 3177.6 7964.76 3177.6 7974.76 3177.6 7984.76 3177.6 7994.76 3166.6 8004.76 3150.6 8013.76 3146.6 8023.76 3146.6 8033.76 3138.6 8043.76 3131.6 8052.76 3127.6 8062.76 3123.6 8072.77 3115.6 8082.77 3111.6 8091.77 3107.6 8101.77 3100.6 8111.77 3096.6 8121.77 3084.6 8131.77 3069.6 8140.77 3053.6 8150.77 3049.6 8160.77 3038.6 8170.77 3034.6 8179.77 3038.6 8189.77 3026.6 8199.77 3014.6 8209.77 2995.6 8218.77 2991.6 8228.77 2991.6 8238.77 2979.6 8248.77 2976.6 8257.77 2972.6 8267.77 2960.6 8277.77 2952.6 8287.77 2945.6 8297.77 2937.6 8306.77 2933.6 8316.77 2925.6 8326.77 2917.6 8336.77 2910.6 8345.77 2906.6 8355.77 2898.6 8365.77 2890.6 8375.78 2890.6 8384.78 2886.59 8394.78 2882.59 8404.78 2886.59 8414.78 2886.59 8424.78 2886.59 8433.78 2886.59 8443.78 2890.6 8453.78 2890.6 8463.78 2894.6 8472.78 2902.6 8482.78 2906.6 8492.78 2910.6 8502.78 2921.6 8511.78 2929.6 8521.78 2937.6 8531.78 2956.6 8541.78 2960.6 8550.78 2968.6 8560.78 2972.6 8570.78 2979.6 8580.78 2987.6 8590.78 2983.6 8599.78 2995.6 8609.78 3018.6 8619.78 3038.6 8629.78 3049.6 8638.78 3080.6 8648.78 3111.6 8658.78 3177.6 8668.79 3177.6 8677.79 3177.6 8687.79 3177.6 8697.79 3177.6 8707.79 3177.6 8717.79 3177.6 8726.79 3177.6 8736.79 3177.6 8746.79 3177.6 8756.79 3177.6 8765.79 3177.6 8775.79 3177.6 8785.5 3177.6"
           stroke="#4EA72E"
           stroke-width="9.16667"
           stroke-linecap="round"
           stroke-linejoin="round"
           stroke-miterlimit="10"
           stroke-opacity="1"
           fill="none"
           fill-rule="nonzero"
           id="path9" /></g><g
         id="g10"><path
           d="M3980.5 3177.6 3989.63 3177.6 3999.63 3177.6 4009.63 3177.6 4018.63 3177.6 4028.63 3177.6 4038.63 3177.6 4048.63 3177.6 4058.63 3177.6 4067.63 3177.6 4077.63 3177.6 4087.63 3177.6 4097.63 3177.6 4106.64 3177.6 4116.64 3142.6 4126.64 3123.6 4136.64 3123.6 4145.64 3108.6 4155.64 3098.6 4165.64 3088.6 4175.64 3073.6 4185.64 3058.6 4194.64 3043.6 4204.64 3038.6 4214.64 3018.6 4224.64 2969.6 4233.64 2934.6 4243.64 2919.6 4253.64 2914.6 4263.64 2904.6 4272.64 2894.6 4282.64 2879.59 4292.64 2869.59 4302.64 2850.59 4312.64 2830.59 4321.64 2825.59 4331.64 2825.59 4341.64 2820.59 4351.64 2825.59 4360.64 2830.59 4370.64 2869.59 4380.64 2899.6 4390.64 2929.6 4399.64 2979.6 4409.65 3008.6 4419.65 3048.6 4429.65 3078.6 4438.65 3123.6 4448.65 3177.6 4458.65 3177.6 4468.65 3182.6 4478.65 3177.6 4487.65 3331.61 4497.65 3435.61 4507.65 3455.61 4517.65 3460.61 4526.65 3470.61 4536.65 3500.62 4546.65 3520.62 4556.65 3554.62 4565.65 3569.62 4575.65 3579.62 4585.65 3594.62 4595.65 3604.62 4605.65 3629.62 4614.65 3649.62 4624.65 3664.62 4634.65 3674.62 4644.65 3674.62 4653.65 3674.62 4663.65 3674.62 4673.65 3659.62 4683.65 3649.62 4692.65 3639.62 4702.65 3574.62 4712.65 3495.61 4722.66 3465.61 4731.66 3430.61 4741.66 3376.61 4751.66 3321.61 4761.66 3237.61 4771.66 3217.61 4780.66 3177.6 4790.66 3182.6 4800.66 3177.6 4810.66 3177.6 4819.66 3177.6 4829.66 3177.6 4839.66 3197.61 4849.66 3192.6 4858.66 3187.6 4868.66 3192.6 4878.66 3197.61 4888.66 3177.6 4898.66 3177.6 4907.66 3187.6 4917.66 3187.6 4927.66 3192.6 4937.66 3212.61 4946.66 3252.61 4956.66 3262.61 4966.66 3286.61 4976.66 3311.61 4985.66 3321.61 4995.66 3351.61 5005.66 3356.61 5015.67 3401.61 5025.67 3336.61 5034.67 3321.61 5044.67 3411.61 5054.67 3475.61 5064.67 3435.61 5073.67 3445.61 5083.67 3435.61 5093.67 3450.61 5103.67 3490.61 5112.67 3420.61 5122.67 3396.61 5132.67 3386.61 5142.67 3346.61 5151.67 3321.61 5161.67 3301.61 5171.67 3197.61 5181.67 3157.6 5191.67 3147.6 5200.67 3088.6 5210.67 3018.6 5220.67 2954.6 5230.67 2889.59 5239.67 2864.59 5249.67 2850.59 5259.67 2835.59 5269.67 2775.59 5278.67 2765.59 5288.67 2755.59 5298.67 2750.59 5308.67 2745.59 5318.67 2750.59 5327.68 2755.59 5337.68 2765.59 5347.68 2770.59 5357.68 2780.59 5366.68 2795.59 5376.68 2810.59 5386.68 2830.59 5396.68 2840.59 5405.68 2845.59 5415.68 2869.59 5425.68 2884.59 5435.68 2919.6 5445.68 2959.6 5454.68 2974.6 5464.68 2984.6 5474.68 3003.6 5484.68 3028.6 5493.68 3063.6 5503.68 3108.6 5513.68 3113.6 5523.68 3147.6 5532.68 3147.6 5542.68 3152.6 5552.68 3157.6 5562.68 3157.6 5571.68 3152.6 5581.68 3147.6 5591.68 3157.6 5601.68 3157.6 5611.68 3172.6 5620.68 3212.61 5630.69 3252.61 5640.69 3281.61 5650.69 3351.61 5659.69 3371.61 5669.69 3440.61 5679.69 3500.62 5689.69 3550.62 5698.69 3584.62 5708.69 3614.62 5718.69 3634.62 5728.69 3644.62 5738.69 3664.62 5747.69 3703.62 5757.69 3748.62 5767.69 3823.63 5777.69 3857.63 5786.69 3882.5 5796.69 3852.63 5806.69 3837.63 5816.69 3798.62 5825.69 3763.62 5835.69 3723.62 5845.69 3693.62 5855.69 3684.62 5865.69 3659.62 5874.69 3639.62 5884.69 3619.62 5894.69 3579.62 5904.69 3564.62 5913.69 3510.62 5923.69 3485.61 5933.69 3455.61 5943.7 3430.61 5952.7 3415.61 5962.7 3391.61 5972.7 3351.61 5982.7 3316.61 5991.7 3296.61 6001.7 3247.61 6011.7 3217.61 6021.7 3202.61 6031.7 3162.6 6040.7 3118.6 6050.7 3083.6 6060.7 3018.6 6070.7 2949.6 6079.7 2889.59 6089.7 2874.59 6099.7 2835.59 6109.7 2805.59 6118.7 2745.59 6128.7 2656.59 6138.7 2621.59 6148.7 2586.59 6158.7 2537.58 6167.7 2497.58 6177.7 2467.58 6187.7 2423.58 6197.7 2368.58 6206.7 2294.58 6216.7 2299.58 6226.7 2274.57 6236.71 2234.57 6245.71 2274.57 6255.71 2368.58 6265.71 2447.58 6275.71 2507.58 6284.71 2552.58 6294.71 2567.58 6304.71 2596.59 6314.71 2631.59 6324.71 2686.59 6333.71 2730.59 6343.71 2760.59 6353.71 2805.59 6363.71 2850.59 6372.71 2884.59 6382.71 2879.59 6392.71 2909.6 6402.71 2914.6 6411.71 2954.6 6421.71 2984.6 6431.71 2969.6 6441.71 3018.6 6451.71 3103.6 6460.71 3133.6 6470.71 3162.6 6480.71 3162.6 6490.71 3187.6 6499.71 3202.61 6509.71 3217.61 6519.71 3217.61 6529.71 3197.61 6538.71 2899.6 6548.72 2909.6 6558.72 3177.6 6568.72 3192.6 6578.72 3182.6 6587.72 3182.6 6597.72 3192.6 6607.72 3187.6 6617.72 3177.6 6626.72 3162.6 6636.72 3147.6 6646.72 3142.6 6656.72 3157.6 6665.72 3172.6 6675.72 3157.6 6685.72 3162.6 6695.72 3187.6 6704.72 3272.61 6714.72 3296.61 6724.72 3346.61 6734.72 3411.61 6744.72 3435.61 6753.72 3430.61 6763.72 3445.61 6773.72 3425.61 6783.72 3465.61 6792.72 3485.61 6802.72 3520.62 6812.72 3540.62 6822.72 3559.62 6831.72 3569.62 6841.72 3609.62 6851.73 3659.62 6861.73 3654.62 6871.73 3629.62 6880.73 3634.62 6890.73 3644.62 6900.73 3738.62 6910.73 3748.62 6919.73 3803.62 6929.73 3783.62 6939.73 3703.62 6949.73 3664.62 6958.73 3579.62 6968.73 3559.62 6978.73 3530.62 6988.73 3455.61 6998.73 3406.61 7007.73 3391.61 7017.73 3376.61 7027.73 3356.61 7037.73 3331.61 7046.73 3272.61 7056.73 3262.61 7066.73 3267.61 7076.73 3232.61 7085.73 3222.61 7095.73 3217.61 7105.73 3197.61 7115.73 3172.6 7124.73 3162.6 7134.73 3093.6 7144.73 3048.6 7154.73 2998.6 7164.74 3018.6 7173.74 2994.6 7183.74 3013.6 7193.74 3018.6 7203.74 3013.6 7212.74 3018.6 7222.74 3033.6 7232.74 2969.6 7242.74 3043.6 7251.74 3023.6 7261.74 3058.6 7271.74 3053.6 7281.74 3038.6 7291.74 3058.6 7300.74 3083.6 7310.74 3083.6 7320.74 3093.6 7330.74 3118.6 7339.74 3128.6 7349.74 3157.6 7359.74 3177.6 7369.74 3162.6 7378.74 3162.6 7388.74 3142.6 7398.74 3152.6 7408.74 3147.6 7417.74 3167.6 7427.74 3167.6 7437.74 3172.6 7447.74 3182.6 7457.75 3202.61 7466.75 3232.61 7476.75 3217.61 7486.75 3207.61 7496.75 3217.61 7505.75 3217.61 7515.75 3222.61 7525.75 3237.61 7535.75 3237.61 7544.75 3242.61 7554.75 3257.61 7564.75 3291.61 7574.75 3286.61 7584.75 3276.61 7593.75 3281.61 7603.75 3276.61 7613.75 3286.61 7623.75 3281.61 7632.75 3306.61 7642.75 3306.61 7652.75 3321.61 7662.75 3321.61 7671.75 3321.61 7681.75 3311.61 7691.75 3326.61 7701.75 3316.61 7711.75 3341.61 7720.75 3351.61 7730.75 3346.61 7740.75 3301.61 7750.75 3276.61 7759.75 3262.61 7769.76 3252.61 7779.76 3227.61 7789.76 3187.6 7798.76 3133.6 7808.76 3068.6 7818.76 3053.6 7828.76 3033.6 7837.76 2964.6 7847.76 2949.6 7857.76 2909.6 7867.76 2874.59 7877.76 2859.59 7886.76 2850.59 7896.76 2810.59 7906.76 2770.59 7916.76 2735.59 7925.76 2711.59 7935.76 2691.59 7945.76 2631.59 7955.76 2631.59 7964.76 2601.59 7974.76 2562.58 7984.76 2527.58 7994.76 2497.58 8004.76 2482.58 8013.76 2487.58 8023.76 2472.58 8033.76 2438.58 8043.76 2413.58 8052.76 2373.58 8062.76 2388.58 8072.77 2343.58 8082.77 2328.58 8091.77 2313.58 8101.77 2303.58 8111.77 2294.58 8121.77 2269.57 8131.77 2244.57 8140.77 2209.57 8150.77 2179.57 8160.77 2169.57 8170.77 2179.57 8179.77 2189.57 8189.77 2165.5 8199.77 2189.57 8209.77 2184.57 8218.77 2209.57 8228.77 2214.57 8238.77 2214.57 8248.77 2229.57 8257.77 2229.57 8267.77 2204.57 8277.77 2204.57 8287.77 2229.57 8297.77 2229.57 8306.77 2254.57 8316.77 2249.57 8326.77 2209.57 8336.77 2214.57 8345.77 2204.57 8355.77 2189.57 8365.77 2189.57 8375.78 2199.57 8384.78 2244.57 8394.78 2224.57 8404.78 2209.57 8414.78 2214.57 8424.78 2249.57 8433.78 2294.58 8443.78 2303.58 8453.78 2338.58 8463.78 2348.58 8472.78 2368.58 8482.78 2388.58 8492.78 2403.58 8502.78 2423.58 8511.78 2438.58 8521.78 2452.58 8531.78 2462.58 8541.78 2467.58 8550.78 2467.58 8560.78 2482.58 8570.78 2517.58 8580.78 2532.58 8590.78 2537.58 8599.78 2542.58 8609.78 2562.58 8619.78 2596.59 8629.78 2641.59 8638.78 2696.59 8648.78 2730.59 8658.78 2835.59 8668.79 2889.59 8677.79 2954.6 8687.79 2994.6 8697.79 2998.6 8707.79 3172.6 8717.79 3157.6 8726.79 3157.6 8736.79 3157.6 8746.79 3157.6 8756.79 3162.6 8765.79 3172.6 8775.79 3177.6 8785.5 3222.61"
           stroke="#4E95D9"
           stroke-width="9.16667"
           stroke-linecap="round"
           stroke-linejoin="round"
           stroke-miterlimit="10"
           stroke-opacity="1"
           fill="none"
           fill-rule="nonzero"
           id="path10" /></g><g
         id="g11"><path
           d="M3989.5 3177.6 3999.63 3177.6 4009.63 3177.6 4018.63 3177.6 4028.63 3177.6 4038.63 3177.6 4048.63 3177.6 4058.63 3177.6 4067.63 3177.6 4077.63 3177.6 4087.63 3177.6 4097.63 3177.6 4106.63 3177.6 4116.64 3177.6 4126.64 3142.6 4136.64 3123.6 4145.64 3123.6 4155.64 3108.6 4165.64 3098.6 4175.64 3088.6 4185.64 3073.6 4194.64 3058.6 4204.64 3043.6 4214.64 3038.6 4224.64 3018.6 4233.64 2969.6 4243.64 2934.6 4253.64 2919.6 4263.64 2914.6 4272.64 2904.6 4282.64 2894.59 4292.64 2879.59 4302.64 2869.59 4312.64 2850.59 4321.64 2830.59 4331.64 2825.59 4341.64 2825.59 4351.64 2820.59 4360.64 2825.59 4370.64 2830.59 4380.64 2869.59 4390.64 2899.6 4399.64 2929.6 4409.65 2979.6 4419.65 3008.6 4429.65 3048.6 4438.65 3078.6 4448.65 3123.6 4458.65 3177.6 4468.65 3177.6 4478.65 3182.6 4487.65 3177.6 4497.65 3331.61 4507.65 3435.61 4517.65 3455.61 4526.65 3460.61 4536.65 3470.61 4546.65 3500.61 4556.65 3520.62 4565.65 3554.62 4575.65 3569.62 4585.65 3579.62 4595.65 3594.62 4605.65 3604.62 4614.65 3629.62 4624.65 3649.62 4634.65 3664.62 4644.65 3674.62 4653.65 3674.62 4663.65 3674.62 4673.65 3674.62 4683.65 3659.62 4692.65 3649.62 4702.65 3639.62 4712.65 3574.62 4722.66 3495.61 4731.66 3465.61 4741.66 3430.61 4751.66 3376.61 4761.66 3321.61 4771.66 3237.61 4780.66 3217.61 4790.66 3177.6 4800.66 3172.6 4810.66 3177.6 4819.66 3177.6 4829.66 3177.6 4839.66 3177.6 4849.66 3157.6 4858.66 3162.6 4868.66 3167.6 4878.66 3162.6 4888.66 3157.6 4898.66 3177.6 4907.66 3177.6 4917.66 3167.6 4927.66 3167.6 4937.66 3162.6 4946.66 3142.6 4956.66 3103.6 4966.66 3093.6 4976.66 3068.6 4985.66 3043.6 4995.66 3033.6 5005.66 3003.6 5015.66 2998.6 5025.67 2954.6 5034.67 3018.6 5044.67 3033.6 5054.67 2944.6 5064.67 2879.59 5073.67 2919.6 5083.67 2909.6 5093.67 2919.6 5103.67 2904.6 5112.67 2864.59 5122.67 2934.6 5132.67 2959.6 5142.67 2969.6 5151.67 3008.6 5161.67 3033.6 5171.67 3053.6 5181.67 3157.6 5191.67 3197.6 5200.67 3207.61 5210.67 3267.61 5220.67 3336.61 5230.67 3401.61 5239.67 3465.61 5249.67 3490.61 5259.67 3505.61 5269.67 3520.62 5278.67 3579.62 5288.67 3589.62 5298.67 3599.62 5308.67 3604.62 5318.67 3609.62 5327.67 3604.62 5337.68 3599.62 5347.68 3589.62 5357.68 3584.62 5366.68 3574.62 5376.68 3559.62 5386.68 3545.62 5396.68 3525.62 5405.68 3515.62 5415.68 3510.62 5425.68 3485.61 5435.68 3470.61 5445.68 3435.61 5454.68 3396.61 5464.68 3381.61 5474.68 3371.61 5484.68 3351.61 5493.68 3326.61 5503.68 3291.61 5513.68 3247.61 5523.68 3242.61 5532.68 3207.61 5542.68 3207.61 5552.68 3202.61 5562.68 3197.6 5571.68 3197.6 5581.68 3202.61 5591.68 3207.61 5601.68 3197.6 5611.68 3197.6 5620.68 3182.6 5630.69 3142.6 5640.69 3103.6 5650.69 3073.6 5659.69 3003.6 5669.69 2984.6 5679.69 2914.6 5689.69 2855.59 5698.69 2805.59 5708.69 2770.59 5718.69 2740.59 5728.69 2720.59 5738.69 2711.59 5747.69 2691.59 5757.69 2651.59 5767.69 2606.59 5777.69 2532.58 5786.69 2497.58 5796.69 2472.5 5806.69 2502.58 5816.69 2517.58 5825.69 2557.58 5835.69 2591.59 5845.69 2631.59 5855.69 2661.59 5865.69 2671.59 5874.69 2696.59 5884.69 2716.59 5894.69 2735.59 5904.69 2775.59 5913.69 2790.59 5923.69 2845.59 5933.69 2869.59 5943.7 2899.6 5952.7 2924.6 5962.7 2939.6 5972.7 2964.6 5982.7 3003.6 5991.7 3038.6 6001.7 3058.6 6011.7 3108.6 6021.7 3137.6 6031.7 3152.6 6040.7 3192.6 6050.7 3237.61 6060.7 3272.61 6070.7 3336.61 6079.7 3406.61 6089.7 3465.61 6099.7 3480.61 6109.7 3520.62 6118.7 3550.62 6128.7 3609.62 6138.7 3698.62 6148.7 3733.62 6158.7 3768.62 6167.7 3818.63 6177.7 3857.63 6187.7 3887.63 6197.7 3932.63 6206.7 3986.63 6216.7 4061.63 6226.7 4056.63 6236.7 4081.63 6245.71 4121.5 6255.71 4081.63 6265.71 3986.63 6275.71 3907.63 6284.71 3847.63 6294.71 3803.62 6304.71 3788.62 6314.71 3758.62 6324.71 3723.62 6333.71 3669.62 6343.71 3624.62 6353.71 3594.62 6363.71 3550.62 6372.71 3505.61 6382.71 3470.61 6392.71 3475.61 6402.71 3445.61 6411.71 3440.61 6421.71 3401.61 6431.71 3371.61 6441.71 3386.61 6451.71 3336.61 6460.71 3252.61 6470.71 3222.61 6480.71 3192.6 6490.71 3192.6 6499.71 3167.6 6509.71 3152.6 6519.71 3137.6 6529.71 3137.6 6538.71 3157.6 6548.71 3455.61 6558.72 3445.61 6568.72 3177.6 6578.72 3162.6 6587.72 3172.6 6597.72 3172.6 6607.72 3162.6 6617.72 3167.6 6626.72 3157.6 6636.72 3162.6 6646.72 3177.6 6656.72 3182.6 6665.72 3187.6 6675.72 3182.6 6685.72 3197.6 6695.72 3192.6 6704.72 3167.6 6714.72 3083.6 6724.72 3058.6 6734.72 3008.6 6744.72 2944.6 6753.72 2919.6 6763.72 2924.6 6773.72 2909.6 6783.72 2929.6 6792.72 2889.59 6802.72 2869.59 6812.72 2835.59 6822.72 2815.59 6831.72 2795.59 6841.72 2785.59 6851.73 2745.59 6861.73 2696.59 6871.73 2701.59 6880.73 2725.59 6890.73 2720.59 6900.73 2711.59 6910.73 2616.59 6919.73 2606.59 6929.73 2552.58 6939.73 2572.58 6949.73 2651.59 6958.73 2691.59 6968.73 2696.59 6978.73 2696.59 6988.73 2696.59 6998.73 2691.59 7007.73 2661.59 7017.73 2646.59 7027.73 2611.59 7037.73 2562.58 7046.73 2537.58 7056.73 2517.58 7066.73 2527.58 7076.73 2502.58 7085.73 2527.58 7095.73 2517.58 7105.73 2512.58 7115.73 2522.58 7124.73 2517.58 7134.73 2497.58 7144.73 2527.58 7154.73 2552.58 7164.74 2591.59 7173.74 2581.58 7183.74 2616.59 7193.74 2636.59 7203.74 2661.59 7212.74 2686.59 7222.74 2701.59 7232.74 2706.59 7242.74 2800.59 7251.74 2765.59 7261.74 2835.59 7271.74 2840.59 7281.74 2874.59 7291.74 2929.6 7300.74 2949.6 7310.74 2984.6 7320.74 3003.6 7330.74 3023.6 7339.74 3048.6 7349.74 3088.6 7359.74 3128.6 7369.74 3177.6 7378.74 3192.6 7388.74 3192.6 7398.74 3212.61 7408.74 3232.61 7417.74 3247.61 7427.74 3267.61 7437.74 3296.61 7447.74 3311.61 7457.74 3341.61 7466.75 3371.61 7476.75 3401.61 7486.75 3425.61 7496.75 3465.61 7505.75 3485.61 7515.75 3505.61 7525.75 3530.62 7535.75 3545.62 7544.75 3584.62 7554.75 3609.62 7564.75 3644.62 7574.75 3669.62 7584.75 3693.62 7593.75 3703.62 7603.75 3718.62 7613.75 3723.62 7623.75 3743.62 7632.75 3748.62 7642.75 3743.62 7652.75 3763.62 7662.75 3778.62 7671.75 3818.63 7681.75 3818.63 7691.75 3828.63 7701.75 3842.63 7711.75 3872.63 7720.75 3907.63 7730.75 3927.63 7740.75 3932.63 7750.75 3976.63 7759.75 3981.63 7769.75 3976.63 7779.76 3957.63 7789.76 3952.63 7798.76 3922.63 7808.76 3887.63 7818.76 3862.63 7828.76 3828.63 7837.76 3788.62 7847.76 3758.62 7857.76 3733.62 7867.76 3713.62 7877.76 3708.62 7886.76 3664.62 7896.76 3644.62 7906.76 3654.62 7916.76 3624.62 7925.76 3619.62 7935.76 3644.62 7945.76 3664.62 7955.76 3723.62 7964.76 3723.62 7974.76 3753.62 7984.76 3793.62 7994.76 3828.63 8004.76 3837.63 8013.76 3823.63 8023.76 3808.62 8033.76 3823.63 8043.76 3847.63 8052.76 3852.63 8062.76 3882.63 8072.77 3867.63 8082.77 3892.63 8091.77 3897.63 8101.77 3902.63 8111.77 3902.63 8121.77 3902.63 8131.77 3907.63 8140.77 3902.63 8150.77 3897.63 8160.77 3927.63 8170.77 3907.63 8179.77 3897.63 8189.77 3887.63 8199.77 3892.63 8209.77 3847.63 8218.77 3813.63 8228.77 3778.62 8238.77 3773.62 8248.77 3753.62 8257.77 3728.62 8267.77 3718.62 8277.77 3723.62 8287.77 3703.62 8297.77 3669.62 8306.77 3649.62 8316.77 3614.62 8326.77 3609.62 8336.77 3629.62 8345.77 3614.62 8355.77 3614.62 8365.77 3609.62 8375.77 3599.62 8384.78 3589.62 8394.78 3535.62 8404.78 3545.62 8414.78 3569.62 8424.78 3564.62 8433.78 3530.62 8443.78 3485.61 8453.78 3485.61 8463.78 3450.61 8472.78 3440.61 8482.78 3440.61 8492.78 3430.61 8502.78 3425.61 8511.78 3425.61 8521.78 3420.61 8531.78 3425.61 8541.78 3455.61 8550.78 3460.61 8560.78 3470.61 8570.78 3465.61 8580.78 3450.61 8590.78 3445.61 8599.78 3430.61 8609.78 3455.61 8619.78 3475.61 8629.78 3480.61 8638.78 3465.61 8648.78 3470.61 8658.78 3495.61 8668.78 3520.62 8677.79 3465.61 8687.79 3401.61 8697.79 3361.61 8707.79 3356.61 8717.79 3182.6 8726.79 3197.6 8736.79 3197.6 8746.79 3197.6 8756.79 3197.6 8765.79 3192.6 8775.79 3182.6 8785.5 3177.6"
           stroke="#A02B93"
           stroke-width="9.16667"
           stroke-linecap="round"
           stroke-linejoin="round"
           stroke-miterlimit="10"
           stroke-opacity="1"
           fill="none"
           fill-rule="nonzero"
           id="path11" /></g><g
         id="g12"><text
           fill="#595959"
           fill-opacity="1"
           font-family="Aptos Narrow,Aptos Narrow_MSFontService,sans-serif"
           font-style="normal"
           font-variant="normal"
           font-weight="400"
           font-stretch="semi-condensed"
           font-size="41"
           text-anchor="start"
           direction="ltr"
           writing-mode="lr-tb"
           unicode-bidi="normal"
           text-decoration="none"
           transform="matrix(1 0 0 1 3856.87 4678)"
           id="text11">-200</text></g><g
         id="g13"><text
           fill="#595959"
           fill-opacity="1"
           font-family="Aptos Narrow,Aptos Narrow_MSFontService,sans-serif"
           font-style="normal"
           font-variant="normal"
           font-weight="400"
           font-stretch="semi-condensed"
           font-size="41"
           text-anchor="start"
           direction="ltr"
           writing-mode="lr-tb"
           unicode-bidi="normal"
           text-decoration="none"
           transform="matrix(1 0 0 1 3856.87 4181)"
           id="text12">-100</text></g><g
         id="g14"><text
           fill="#595959"
           fill-opacity="1"
           font-family="Aptos Narrow,Aptos Narrow_MSFontService,sans-serif"
           font-style="normal"
           font-variant="normal"
           font-weight="400"
           font-stretch="semi-condensed"
           font-size="41"
           text-anchor="start"
           direction="ltr"
           writing-mode="lr-tb"
           unicode-bidi="normal"
           text-decoration="none"
           transform="matrix(1 0 0 1 3911.3 3685)"
           id="text13">0</text></g><g
         id="g15"><text
           fill="#595959"
           fill-opacity="1"
           font-family="Aptos Narrow,Aptos Narrow_MSFontService,sans-serif"
           font-style="normal"
           font-variant="normal"
           font-weight="400"
           font-stretch="semi-condensed"
           font-size="41"
           text-anchor="start"
           direction="ltr"
           writing-mode="lr-tb"
           unicode-bidi="normal"
           text-decoration="none"
           transform="matrix(1 0 0 1 3869.5 3188)"
           id="text14">100</text></g><g
         id="g16"><text
           fill="#595959"
           fill-opacity="1"
           font-family="Aptos Narrow,Aptos Narrow_MSFontService,sans-serif"
           font-style="normal"
           font-variant="normal"
           font-weight="400"
           font-stretch="semi-condensed"
           font-size="41"
           text-anchor="start"
           direction="ltr"
           writing-mode="lr-tb"
           unicode-bidi="normal"
           text-decoration="none"
           transform="matrix(1 0 0 1 3869.5 2692)"
           id="text15">200</text></g><g
         id="g17"><text
           fill="#595959"
           fill-opacity="1"
           font-family="Aptos Narrow,Aptos Narrow_MSFontService,sans-serif"
           font-style="normal"
           font-variant="normal"
           font-weight="400"
           font-stretch="semi-condensed"
           font-size="41"
           text-anchor="start"
           direction="ltr"
           writing-mode="lr-tb"
           unicode-bidi="normal"
           text-decoration="none"
           transform="matrix(1 0 0 1 3869.5 2195)"
           id="text16">300</text></g><g
         id="g18"
         transform="translate(-91.468118)"><path
           d="m 5213.5,4753.5 h 88"
           stroke="#c04f15"
           stroke-width="9.16667"
           stroke-linecap="round"
           stroke-linejoin="round"
           stroke-miterlimit="10"
           stroke-opacity="1"
           fill="none"
           fill-rule="evenodd"
           id="path17" /></g><g
         id="g19"
         transform="translate(-91.468118)"><text
           fill="#595959"
           fill-opacity="1"
           font-family="'Aptos Narrow', 'Aptos Narrow_MSFontService', sans-serif"
           font-style="normal"
           font-variant="normal"
           font-weight="400"
           font-stretch="semi-condensed"
           font-size="64px"
           text-anchor="start"
           direction="ltr"
           writing-mode="lr-tb"
           unicode-bidi="normal"
           text-decoration="none"
           transform="translate(5310.31,4772)"
           id="text18"
           style="text-decoration:none;text-decoration-line:none">desired pitch </text></g><g
         id="g20"
         transform="translate(-16.319184,-5.3341727)"><text
           fill="#595959"
           fill-opacity="1"
           font-family="'Cambria Math', 'Cambria Math_MSFontService', sans-serif"
           font-style="normal"
           font-variant="normal"
           font-weight="400"
           font-stretch="normal"
           font-size="64px"
           text-anchor="start"
           direction="ltr"
           writing-mode="lr-tb"
           unicode-bidi="normal"
           text-decoration="none"
           transform="translate(5653.85,4772)"
           id="text19"
           style="text-decoration:none;text-decoration-line:none">⋅</text></g><g
         id="g21"
         transform="translate(-16.319184)"><text
           fill="#595959"
           fill-opacity="1"
           font-family="'Aptos Narrow', 'Aptos Narrow_MSFontService', sans-serif"
           font-style="normal"
           font-variant="normal"
           font-weight="400"
           font-stretch="semi-condensed"
           font-size="64px"
           text-anchor="start"
           direction="ltr"
           writing-mode="lr-tb"
           unicode-bidi="normal"
           text-decoration="none"
           transform="translate(5683.96,4772)"
           id="text20"
           style="text-decoration:none;text-decoration-line:none">10</text></g><g
         id="g22"
         transform="translate(-16.319184)"><path
           d="m 5828.5,4753.5 h 88"
           stroke="#104862"
           stroke-width="9.16667"
           stroke-linecap="round"
           stroke-linejoin="round"
           stroke-miterlimit="10"
           stroke-opacity="1"
           fill="none"
           fill-rule="evenodd"
           id="path21" /></g><g
         id="g23"
         transform="translate(-16.319184)"><text
           fill="#595959"
           fill-opacity="1"
           font-family="'Aptos Narrow', 'Aptos Narrow_MSFontService', sans-serif"
           font-style="normal"
           font-variant="normal"
           font-weight="400"
           font-stretch="semi-condensed"
           font-size="64px"
           text-anchor="start"
           direction="ltr"
           writing-mode="lr-tb"
           unicode-bidi="normal"
           text-decoration="none"
           transform="translate(5926.03,4772)"
           id="text22"
           style="text-decoration:none;text-decoration-line:none">pitch </text></g><g
         id="g24"
         transform="translate(5.0679787,-4.2233155)"><text
           fill="#595959"
           fill-opacity="1"
           font-family="'Cambria Math', 'Cambria Math_MSFontService', sans-serif"
           font-style="normal"
           font-variant="normal"
           font-weight="400"
           font-stretch="normal"
           font-size="64px"
           text-anchor="start"
           direction="ltr"
           writing-mode="lr-tb"
           unicode-bidi="normal"
           text-decoration="none"
           transform="translate(6067.48,4772)"
           id="text23"
           style="text-decoration:none;text-decoration-line:none">⋅</text></g><g
         id="g25"><text
           fill="#595959"
           fill-opacity="1"
           font-family="Aptos Narrow,Aptos Narrow_MSFontService,sans-serif"
           font-style="normal"
           font-variant="normal"
           font-weight="400"
           font-stretch="semi-condensed"
           font-size="64"
           text-anchor="start"
           direction="ltr"
           writing-mode="lr-tb"
           unicode-bidi="normal"
           text-decoration="none"
           transform="matrix(1 0 0 1 6097.59 4772)"
           id="text24">10</text></g><g
         id="g26"><path
           d="M6242.5 4753.5 6330.5 4753.5"
           stroke="#4EA72E"
           stroke-width="9.16667"
           stroke-linecap="round"
           stroke-linejoin="round"
           stroke-miterlimit="10"
           stroke-opacity="1"
           fill="none"
           fill-rule="evenodd"
           id="path25" /></g><g
         id="g27"><text
           fill="#595959"
           fill-opacity="1"
           font-family="Aptos Narrow,Aptos Narrow_MSFontService,sans-serif"
           font-style="normal"
           font-variant="normal"
           font-weight="400"
           font-stretch="semi-condensed"
           font-size="64"
           text-anchor="start"
           direction="ltr"
           writing-mode="lr-tb"
           unicode-bidi="normal"
           text-decoration="none"
           transform="matrix(1 0 0 1 6339.66 4771)"
           id="text26">thrust</text></g><g
         id="g28"><path
           d="M6570.5 4753.5 6658.5 4753.5"
           stroke="#4E95D9"
           stroke-width="9.16667"
           stroke-linecap="round"
           stroke-linejoin="round"
           stroke-miterlimit="10"
           stroke-opacity="1"
           fill="none"
           fill-rule="evenodd"
           id="path27" /></g><g
         id="g29"><text
           fill="#595959"
           fill-opacity="1"
           font-family="Aptos Narrow,Aptos Narrow_MSFontService,sans-serif"
           font-style="normal"
           font-variant="normal"
           font-weight="400"
           font-stretch="semi-condensed"
           font-size="64"
           text-anchor="start"
           direction="ltr"
           writing-mode="lr-tb"
           unicode-bidi="normal"
           text-decoration="none"
           transform="matrix(1 0 0 1 6668.24 4771)"
           id="text28">front motors</text></g><g
         id="g30"
         transform="translate(51.677415)"><path
           d="m 7064.5,4753.5 h 88"
           stroke="#a02b93"
           stroke-width="9.16667"
           stroke-linecap="round"
           stroke-linejoin="round"
           stroke-miterlimit="10"
           stroke-opacity="1"
           fill="none"
           fill-rule="evenodd"
           id="path29" /></g><g
         id="g31"
         transform="translate(51.677415)"><text
           fill="#595959"
           fill-opacity="1"
           font-family="'Aptos Narrow', 'Aptos Narrow_MSFontService', sans-serif"
           font-style="normal"
           font-variant="normal"
           font-weight="400"
           font-stretch="semi-condensed"
           font-size="64px"
           text-anchor="start"
           direction="ltr"
           writing-mode="lr-tb"
           unicode-bidi="normal"
           text-decoration="none"
           transform="translate(7161.3,4771)"
           id="text30"
           style="text-decoration:none;text-decoration-line:none">back motors</text></g><rect
         x="3743.5"
         y="2086.5"
         width="5190"
         height="2747"
         stroke="#D9D9D9"
         stroke-width="3.4375"
         stroke-linecap="butt"
         stroke-linejoin="round"
         stroke-miterlimit="10"
         stroke-opacity="1"
         fill="none"
         id="rect31" /></g></g></svg>
